<?xml version="1.0" encoding="UTF-8"?>
<svg width="30px" height="39px" viewBox="0 0 30 39" version="1.1" xmlns="http://www.w3.org/2000/svg" xmlns:xlink="http://www.w3.org/1999/xlink">
    <!-- Generator: Sketch 50.2 (55047) - http://www.bohemiancoding.com/sketch -->
    <title>icons/ios</title>
    <desc>Created with Sketch.</desc>
    <defs></defs>
    <g id="Page-1" stroke="none" stroke-width="1" fill="none" fill-rule="evenodd" stroke-linecap="round" stroke-linejoin="round">
        <g id="Home-RNTraining" transform="translate(-325.000000, -1398.000000)">
            <g id="Intro" transform="translate(-1.000000, 902.000000)">
                <g id="Group-11-Copy-2" transform="translate(281.428571, 487.000000)">
                    <g id="icons-/-tech-/-iOS">
                        <g id="Group" transform="translate(46.000000, 10.000000)">
                            <path d="M26.9342468,15.0278648 C24.9264147,12.1644615 21.7956454,11.1674452 20.6813331,11.1225967 C18.019748,10.8604056 15.7928482,12.4715012 13.7988156,12.4715012 C12.4499112,12.4715012 10.70772,11.084648 8.49806968,11.1225967 C5.59844264,11.1657203 2.92305803,13.4495431 1.42925849,15.9817576 C-1.58248976,21.0824103 0.659934483,28.6411049 3.59751024,32.7792401 C5.03093681,34.8025967 6.74380395,37.0812448 8.98967807,36.9967226" id="Stroke-1" stroke="#E73536" stroke-width="1.5"></path>
                            <path d="M8.98916059,36.9972401 C11.1574123,36.9127179 11.9733098,35.7345828 14.5900464,35.7345828 C17.2085079,35.7345828 17.9433331,37.0403636 20.2340557,36.9972401 C22.5592771,36.9575664 24.0375522,34.8910862 25.4606291,32.8608298 C27.1096734,30.5080093 27.7875755,28.2345361 27.8289741,28.12069 C27.7789508,28.0948159 22.8145685,26.4181725 22.7679951,21.3761678 C22.7265965,17.1535105 26.9337294,15.0283823 26.9337294,15.0283823" id="Stroke-3" stroke="#E73536" stroke-width="1.5"></path>
                            <path d="M16.7267929,2.54890608 C15.657608,3.81248822 14.8352565,5.65542533 14.9145501,7.67357576 C16.7932972,7.63392895 18.7232015,6.79878812 19.8793536,5.37789768 C21.0329479,3.95189152 21.481852,1.97083004 21.2695498,0 C19.6069417,0.0677832525 17.9225918,1.12673671 16.7267929,2.54890608" id="Fill-5" stroke="#FFA7A8" stroke-width="1.5"></path>
                        </g>
                    </g>
                </g>
            </g>
        </g>
    </g>
</svg>