<?xml version="1.0" encoding="UTF-8"?>
<svg width="110px" height="60px" viewBox="0 0 110 60" version="1.1" xmlns="http://www.w3.org/2000/svg" xmlns:xlink="http://www.w3.org/1999/xlink">
    <!-- Generator: Sketch 42 (36781) - http://www.bohemiancoding.com/sketch -->
    <title>ignite-logo-white</title>
    <desc>Created with Sketch.</desc>
    <defs></defs>
    <g id="Page-1" stroke="none" stroke-width="1" fill="none" fill-rule="evenodd">
        <g id="ignite-landing" transform="translate(-130.000000, -6.000000)" fill="#E73536">
            <g id="ignite-logo-white" transform="translate(130.000000, 6.000000)">
                <path d="M67.1914438,6.86380768 C68.9708359,6.86380768 70.413541,5.4330257 70.413541,3.66800774 C70.413541,1.90298978 68.9708359,0.472539376 67.1914438,0.472539376 C65.4117173,0.472539376 63.9690122,1.90298978 63.9690122,3.66800774 C63.9690122,5.4330257 65.4117173,6.86380768 67.1914438,6.86380768" id="Fill-1"></path>
                <path d="M8.82430699,9.70753247 L4.0454924,10.3179773 C3.43430699,10.3958994 2.96154103,10.8869743 2.91105471,11.4957613 L0.00993009118,47.771307 C-0.0676382979,48.3356618 0.325218845,48.7252722 0.798319149,48.6042443 L5.94725532,47.2875269 C6.42035562,47.1668306 6.86804559,46.5620227 6.89278723,46.0112628 L9.72570517,10.5613595 C9.76749848,10.0573529 9.33017325,9.64320531 8.82430699,9.70753247" id="Fill-3"></path>
                <path d="M37.9005502,35.3100414 L42.3530426,34.6392484 C43.1039848,34.5261785 43.3584225,34.2168113 43.4266292,33.4485327 L44.5135897,20.9902846 C44.5135897,20.9902846 46.1823131,17.7062835 48.971766,17.2861674 C51.1176018,16.9625421 52.1744711,18.5906162 51.9434377,21.4415695 L50.9370547,32.3168389 C50.91131,32.8619619 51.2045319,33.3056203 51.7408237,33.224714 L56.4079666,32.5214258 C56.8907629,32.4484775 57.3484833,31.8920807 57.3745623,31.3466261 L58.2903374,20.8102349 C58.806234,15.1000387 56.2361125,10.3421498 50.335231,11.2314562 C46.7410061,11.7732633 44.2287264,14.4262614 43.2567812,15.4932965 L42.6713404,13.5777397 C42.5981185,13.2096822 42.2086049,12.9974689 41.8869635,13.0458801 L39.7949574,13.3615474 C39.3121611,13.4338326 38.8514316,13.9368444 38.8283617,14.5360155 L37.0967812,34.4024979 C37.0172067,34.9559105 37.4177538,35.3829898 37.9005502,35.3100414" id="Fill-5"></path>
                <path d="M62.9667416,31.6250566 L67.6994164,30.9970379 C68.1835502,30.9330423 68.6964377,30.3779718 68.7221824,29.8338436 L70.4611185,10.0157723 C70.5380182,9.41063277 70.0856474,9.03760155 69.6015137,9.10159713 L64.8685046,9.72961592 C64.3847052,9.79361149 63.9229726,10.2876706 63.8457386,10.8934733 L62.1074711,30.7108815 C62.0810578,31.2556728 62.4826079,31.6893838 62.9667416,31.6250566" id="Fill-7"></path>
                <path d="M74.5181793,14.1414645 L76.4570547,13.9080298 L75.5987872,23.528588 C75.2313404,27.9525725 76.9264772,30.344283 80.6430729,29.8966455 C83.0670851,29.6048522 86.1327082,28.1001271 86.5499726,27.779486 C87.1257173,27.3852335 87.4266292,26.9167063 87.2912188,26.3921415 L86.5693647,22.9101851 C86.4339544,22.3856203 86.0431033,22.1624648 85.5158389,22.4423211 C84.9879058,22.7221774 84.1483617,23.2560265 83.3944103,23.3468804 C82.7481185,23.4244708 81.9831337,23.3004587 82.1205502,21.7698701 L82.92131,13.1294722 L86.7990608,12.6626029 C87.337693,12.5979442 87.743924,12.0621056 87.8238328,11.5116773 L88.1227386,7.85298701 C88.1999726,7.24884222 87.8545927,6.85757392 87.3156261,6.92256424 L83.4378754,7.38976513 L83.9347143,1.27337939 C84.0149574,0.722951091 83.6669027,0.277966289 83.1821003,0.336656535 L78.4985745,0.954396242 C78.0141064,1.01308649 77.5537112,1.5552252 77.4738024,2.10532191 L76.9739544,8.16799116 L74.9809149,8.40805747 C74.4964468,8.46641614 74.087541,8.94820669 74.010307,9.55235148 L73.7114012,13.2110417 C73.6853222,13.7551699 74.0333769,14.1998232 74.5181793,14.1414645" id="Fill-9"></path>
                <path d="M101.140854,9.92511744 C102.382283,9.79613153 103.006173,10.3256701 103.044957,11.0780326 C103.133894,12.7976237 99.1257477,13.9704338 96.5379058,14.293396 C97.0374195,12.4046974 98.9823131,10.1492678 101.140854,9.92511744 M98.9722827,27.8176844 C102.1021,27.4924012 104.736751,25.9760707 106.536872,24.0601824 C106.946447,23.5853551 106.915687,22.994142 106.626477,22.6463111 L104.715018,20.305333 C104.423134,19.9037856 103.943012,20.0612876 103.474258,20.4343189 C102.589912,21.1747444 101.004106,21.9877867 99.7095167,22.1220779 C97.0110061,22.4025974 95.8969635,20.7897762 95.9447751,18.5691628 C101.446781,17.9437966 109.39286,15.2808511 109.110003,9.79944736 C108.940489,6.52108317 106.171432,4.37806024 101.908179,4.82072396 C94.3536201,5.60591324 89.5514012,12.4262503 89.8984529,19.143465 C90.1645927,24.3025698 93.7919179,28.3561757 98.9722827,27.8176844" id="Fill-12"></path>
                <path d="M25.8198085,30.9194805 C25.8198085,30.9194805 24.6041246,32.3956894 22.4181672,32.8055264 C20.1790486,33.2256424 18.6985623,31.6585797 18.5681672,29.1325781 C18.3906292,25.693396 20.4127568,22.1126278 23.1316626,21.6023211 C25.1578024,21.2226582 26.2484407,22.537386 26.5510243,23.185963 L25.8198085,30.9194805 Z M24.1250061,48.1084277 L24.1029392,48.1094225 C23.3476505,51.412987 21.9838511,53.0360873 19.7460699,53.3676706 C18.8553708,53.4993092 18.0790182,53.3869025 17.4277112,53.1773418 C16.4497477,52.8623377 15.8121489,51.8699088 16.0451884,50.8764852 C16.0461915,50.8708483 16.0475289,50.8648798 16.0488663,50.8592429 C16.2909331,49.856535 17.0201429,49.211937 18.2776201,48.8886433 C20.3960395,48.3441835 22.4061307,47.8318873 24.3105684,47.3494335 L24.1250061,48.1084277 Z M109.666222,29.7188174 C103.764003,30.0202266 80.2584407,36.6757668 73.6233343,39.7618127 L76.7772249,32.463664 C76.8484407,32.2995303 76.69531,32.1277701 76.5221185,32.1765128 L71.5533951,33.5844156 C65.077772,35.4193976 52.7948845,39.3917657 45.9712067,41.621995 L47.4974985,36.5756286 C47.5446413,36.4194529 47.4038815,36.2709036 47.2437295,36.3083725 L43.1071945,37.2736115 C43.0416626,37.2888643 38.7794134,38.2856038 31.5154012,40.0827853 C31.5722401,39.6590218 31.6230608,39.2266372 31.6621793,38.7763471 L33.6284711,15.3470019 C33.7047021,14.7355623 33.3095046,14.3757944 32.829383,14.4659851 L30.7504164,14.8559271 C30.4304468,14.9159436 30.020538,15.3181542 29.826617,15.7346228 L28.9559787,17.6342636 C28.1538815,16.6995303 25.8709635,15.2286267 22.8320881,15.7986184 C16.7546717,16.9389334 12.1547325,23.7702128 12.5128176,30.7029566 C12.793,36.1303122 16.3738511,39.7992816 21.1185623,38.9096435 C22.6645805,38.6198397 24.3908116,37.6446532 25.3226353,36.9271069 L24.9100517,41.7317491 C22.4512675,42.3518099 19.7875289,43.0285714 16.9375593,43.7613705 C13.7749757,44.575076 11.557924,46.712462 10.8547933,49.6264161 C10.3609635,51.6739431 10.6745805,53.8623929 11.6288055,55.6390163 C12.0460699,56.4162476 12.5853708,57.1142305 13.234003,57.687538 C14.3741246,58.3997789 16.0441854,59.0612876 17.9830608,59.1126831 C18.4852492,59.1259464 19.0034863,59.1030671 19.536769,59.0241503 C24.4847629,58.2920144 28.3822401,55.6108317 30.1549453,49.3807129 L30.2014195,49.3876762 L31.0259179,45.663664 C34.6385319,44.7650732 37.6128784,44.0392374 39.8252492,43.5050566 L38.0194438,49.4742194 C37.9699605,49.6386847 38.127772,49.7905499 38.2919362,49.7361702 L42.7838815,48.2486875 C42.9587447,48.1906604 57.4640334,43.3916552 67.5830304,40.2933407 L63.0860699,50.6987566 C63.0064954,50.8831169 63.205766,51.0641614 63.3839726,50.968997 L69.5754012,47.6654324 C69.6616626,47.6190108 91.7873769,37.816745 105.004763,31.9490467 C106.516678,31.2779221 108.827012,30.2513401 109.699322,29.8637193 C109.776556,29.8295662 109.750477,29.7145068 109.666222,29.7188174 L109.666222,29.7188174 Z" id="Fill-14"></path>
            </g>
        </g>
    </g>
</svg>