
<svg width="16px" height="16px" viewBox="0 0 16 16" version="1.1" xmlns="http://www.w3.org/2000/svg" xmlns:xlink="http://www.w3.org/1999/xlink">
    <!-- Generator: Sketch 41.2 (35397) - http://www.bohemiancoding.com/sketch -->
    <desc>Created with Sketch.</desc>
    <defs></defs>
    <path d="M15,7.86999512 C15,3.72937012 11.640625,0.369995117 7.5,0.369995117 C3.359375,0.369995117 0,3.72937012 0,7.86999512 C0,11.180542 2.1484375,13.993042 5.12695313,14.9891357 C5.5078125,15.0574951 5.64453125,14.8231201 5.64453125,14.6278076 C5.64453125,14.4520264 5.63476563,13.8563232 5.63476563,13.2313232 C5.63476563,13.2313232 3.54492188,13.680542 3.10546875,12.3426514 C3.10546875,12.3426514 2.76367188,11.4735107 2.27539063,11.2489014 C2.27539063,11.2489014 1.59179688,10.7801514 2.32421875,10.789917 C2.32421875,10.789917 3.06640625,10.8485107 3.4765625,11.5614014 C4.13085938,12.7137451 5.22460938,12.3817139 5.65429688,12.1864014 C5.72265625,11.6981201 5.91796875,11.3758545 6.1328125,11.180542 C4.46289063,10.9949951 2.71484375,10.3504639 2.71484375,7.47937012 C2.71484375,6.65905762 3.0078125,5.98522949 3.48632813,5.46765137 C3.40820313,5.27233887 3.15429688,4.51062012 3.5546875,3.47546387 C4.18945313,3.28015137 5.625,4.24694824 5.625,4.24694824 C6.22070313,4.08093262 6.86523438,3.99304199 7.5,3.99304199 C8.13476563,3.99304199 8.77929688,4.08093262 9.375,4.24694824 C9.375,4.24694824 10.8105469,3.28015137 11.4355469,3.47546387 C11.8457031,4.51062012 11.5917969,5.27233887 11.5136719,5.46765137 C11.9921875,5.98522949 12.2851563,6.65905762 12.2851563,7.47937012 C12.2851563,10.3602295 10.5273438,10.9949951 8.85742188,11.180542 C9.13085938,11.414917 9.36523438,11.8641357 9.36523438,12.5672607 L9.36523438,14.6278076 C9.36523438,14.8231201 9.4921875,15.0574951 9.87304688,14.9891357 C12.8515625,13.993042 15,11.180542 15,7.86999512 L15,7.86999512 Z" id="" stroke="none" fill="#E73536" fill-rule="evenodd"></path>
</svg>