<svg width="311" height="349" xmlns="http://www.w3.org/2000/svg" xmlns:xlink="http://www.w3.org/1999/xlink"><defs><path id="a" d="M0 0h338v360H0z"/><path id="c" d="M0 0h338v360H0z"/></defs><g transform="translate(-27 -6)" fill="none" fill-rule="evenodd"><mask id="b" fill="#fff"><use xlink:href="#a"/></mask><g mask="url(#b)"><g transform="translate(3)"><mask id="d" fill="#fff"><use xlink:href="#c"/></mask><path d="M34.002 252.207c19.901 55.813 107.245 102.11 223.515 102.11 116.27 0 299.724-22.9 299.724-120.99 0-43.484-32.443-48.029-23.98-89.067 8.461-41.038 8.461-91.823-49.424-108.2-57.885-16.377-133.96 71.444-226.32 33.238-31.9-13.197-63.22-46.303-148.477-23.012C23.782 69.576 14.1 196.395 34.002 252.207z" fill="#FFEFEF" mask="url(#d)"/><g mask="url(#d)"><path d="M132.798 166.634l-4.078 22.683-38.593-30.37c-3.253 2.36-5.933 3.54-8.039 3.54-3.159 0-7.64.46-7.64-1.54s-1.795-2.822 1.014-4.29 15.906-8.462 21.032-8.462c5.127 0 13.369-.884 15.858 1.112 1.66 1.33 4.983 6.149 9.97 14.455l10.476 2.872z" fill="#FFF"/><path d="M90.112 157.796c12.558-.045 19.973 3.581 22.247 10.877.635 2.036 1.27 4.03 1.906 5.979.953 2.919 5.671 9.795 13.825 12.776.758.277.446 1.026-.936 2.247l-22.492-6.568c.973-.339 1.346-2.152 1.12-5.438-.2-2.892-1.276-8.34-2.534-10.573-1.18-2.094-5.559-5.194-13.136-9.3z" fill="#FFCACA"/><path d="M120.864 163.23c-2.279-4.852-4.583-10.244-9.126-13.407-3.145-2.19-12.578-1.964-18-1.49" stroke="#E73536" stroke-width="2" stroke-linecap="round" stroke-linejoin="round"/><path d="M77.9 162.79a8.517 8.517 0 0 0-1.998 4.726c-.267 2.661.267 5.686 1.998 11.783 1.732 6.096 3.127 12.751 8.498 14.179 3.817 1.014 6.117-.017 10.135-1.428 4.019-1.41 8.74-4.295 9.457-9.829.325-2.5-.228-6.432-1.659-11.796-3.408-8.744-8.113-12.661-14.117-11.752" fill="#FFF"/><path d="M77.9 162.79a8.517 8.517 0 0 0-1.998 4.726c-.267 2.661.267 5.686 1.998 11.783 1.732 6.096 3.127 12.751 8.498 14.179 3.817 1.014 6.117-.017 10.135-1.428 4.019-1.41 8.74-4.295 9.457-9.829.325-2.5-.228-6.432-1.659-11.796-3.408-8.744-8.113-12.661-14.117-11.752" stroke="#E73536" stroke-width="2" stroke-linecap="round" stroke-linejoin="round"/><path d="M89.96 149.217a48.612 48.612 0 0 0-7.973 3.364c-1.065.562-3.475 1.887-7.232 3.973a3 3 0 0 0 .856 5.562c1.108.227 2.424.287 3.946.18 4.738-.33 9.156-2.698 13.254-7.102" stroke="#E73536" stroke-width="2" fill="#FFF" stroke-linecap="round" stroke-linejoin="round"/><g stroke-linecap="round" stroke-linejoin="round" stroke="#E73536" stroke-width="2"><path d="M36.362 23.323l44.391 128.922m13.885 40.326l4.233 12.292M35.41 22.376A7.772 7.772 0 1 0 30.349 7.68a7.772 7.772 0 0 0 5.06 14.697z"/></g><g><path fill="#FFF" d="M131.662 166.16l125.708 28.772-18.65 7.02-106.737-29.67z"/><path d="M131.687 170.73l-4.097 18.772c75.927 22.723 116.852 33.93 122.775 33.619 2.846-.15 26.551-9.015 44.887-21.705 13.217-9.148 39.813-27.406 79.788-54.775l-6.905-38.436c-59.258 42.78-101.488 71.621-126.69 86.527-4.098 2.424-40.684-5.577-109.758-24.002z" fill="#FFA7A8"/><path d="M121.704 188.111c29.644 9.257 50.423 15.63 62.337 19.117 40.967 11.992 64.48 17.63 71.42 15.298C262.4 220.194 310.863 192.67 338 173c19.506-14.14 34.797-23.941 41.02-30.28" stroke="#E73536" stroke-width="2" stroke-linecap="round" stroke-linejoin="round"/><path d="M121.447 163.515l123.973 28.599c77.696-51.692 118.36-79.409 121.993-83.151" stroke="#E73536" stroke-width="2" stroke-linecap="round" stroke-linejoin="round"/></g><g><path d="M37 23.114c16.675 14.294 27.103 27.512 31.283 39.653 4.18 12.14 4.09 28.945-.271 50.411 19.866-17.012 41.388-33.007 64.565-47.986 34.766-22.468 69.842-36.19 70.44-39.264.599-3.075-43.57-3.968-84.127-4.655-27.037-.458-54.334.155-81.89 1.841z" fill="#FFA7A8"/><path d="M102.903 85.585a608.388 608.388 0 0 1 5.852-4.225m23.822-16.168c34.766-22.468 69.842-36.19 70.44-39.264.599-3.075-43.57-3.968-84.127-4.655-27.037-.458-54.334.155-81.89 1.841 16.675 14.294 27.103 27.512 31.283 39.653 4.18 12.14 4.09 28.945-.271 50.411 10.214-8.513 17.994-14.824 23.34-18.934" stroke="#E73536" stroke-width="2" stroke-linecap="round" stroke-linejoin="round"/></g><path d="M132.178 166L128 189.258" stroke="#E73536" stroke-width="2" stroke-linecap="round" stroke-linejoin="round"/></g><g mask="url(#d)" stroke-linecap="round" stroke-linejoin="round" stroke-width="2"><path d="M-447.5-161.5h1368l192.107 238.592" stroke="#FFA7A8"/></g></g></g></g></svg>