<svg width="338" height="321" xmlns="http://www.w3.org/2000/svg" xmlns:xlink="http://www.w3.org/1999/xlink"><defs><path id="a" d="M0 0h338v360H0z"/></defs><g transform="translate(0 -34)" fill="none" fill-rule="evenodd"><mask id="b" fill="#fff"><use xlink:href="#a"/></mask><path d="M-185.25 252.207c19.902 55.813 107.246 102.11 223.516 102.11s299.723-22.9 299.723-120.99c0-43.484-32.442-48.029-23.98-89.067 8.462-41.038 8.462-91.823-49.423-108.2-57.886-16.377-133.96 71.444-226.32 33.238C6.365 56.1-24.954 22.995-110.212 46.286c-85.258 23.29-94.938 150.109-75.037 205.921z" fill="#FFEFEF" mask="url(#b)"/><g mask="url(#b)"><path d="M225.33 259.45l4.077 22.683L268 251.765c3.254 2.359 5.934 3.538 8.04 3.538 3.158 0 7.64.462 7.64-1.538s1.795-2.824-1.014-4.291c-2.81-1.468-15.906-8.462-21.033-8.462-5.126 0-13.368-.884-15.857 1.112-1.66 1.33-4.983 6.148-9.97 14.455l-10.476 2.872z" fill="#FFCACA"/><path d="M266.888 250.796c-12.558-.045-19.973 3.581-22.247 10.877a470.693 470.693 0 0 1-1.906 5.979c-.953 2.919-5.671 9.795-13.825 12.776-.758.277-.446 1.026.936 2.247l22.492-6.568c-.973-.339-1.346-2.152-1.12-5.438.2-2.892 1.276-8.34 2.534-10.573 1.18-2.094 5.559-5.194 13.136-9.3z" fill="#FFA7A8"/><path d="M225.456 263.888c7.315-1.523 11.544-2.905 12.686-4.147 1.713-1.863 4.201-10.397 8.73-13.343 4.529-2.945 8.642-4.914 12.699-4.914h-12.699l-3.963 3.985-4.767 6.256-2.233 4.7-10.453 2.578v4.885z" fill="#FFEFEF"/><path d="M236.136 256.23c2.279-4.852 4.583-10.244 9.126-13.407 3.145-2.19 12.578-1.964 18-1.49" stroke="#E73536" stroke-width="2" stroke-linecap="round" stroke-linejoin="round"/><path d="M279.1 255.79a8.517 8.517 0 0 1 1.998 4.726c.267 2.661-.267 5.686-1.998 11.783-1.732 6.096-3.127 12.751-8.498 14.179-3.817 1.014-6.117-.017-10.135-1.428-4.019-1.41-8.74-4.295-9.457-9.829-.325-2.5.228-6.432 1.659-11.796 3.408-8.744 8.113-12.661 14.117-11.752" fill="#FFCACA"/><path d="M279.1 255.79a8.517 8.517 0 0 1 1.998 4.726c.267 2.661-.267 5.686-1.998 11.783-1.732 6.096-3.127 12.751-8.498 14.179-3.817 1.014-6.117-.017-10.135-1.428-4.019-1.41-8.74-4.295-9.457-9.829-.325-2.5.228-6.432 1.659-11.796 3.408-8.744 8.113-12.661 14.117-11.752" stroke="#E73536" stroke-width="2" stroke-linecap="round" stroke-linejoin="round"/><path d="M267.04 242.217a48.612 48.612 0 0 1 7.973 3.364c1.065.562 3.475 1.887 7.232 3.973a3 3 0 0 1-.856 5.562c-1.108.227-2.424.287-3.946.18-4.738-.33-9.156-2.698-13.254-7.102" stroke="#E73536" stroke-width="2" stroke-linecap="round" stroke-linejoin="round"/><g stroke-linecap="round" stroke-linejoin="round" stroke="#E73536" stroke-width="2"><path d="M320.638 116.323l-44.391 128.922m-13.885 40.326l-4.233 12.292M321.59 115.376a7.772 7.772 0 1 1 5.061-14.697 7.772 7.772 0 0 1-5.06 14.697z"/></g><g><path d="M225.749 263.91l4.097 18.772c-75.928 22.723-116.853 33.93-122.776 33.619-2.845-.15-26.55-9.015-44.886-21.705-13.217-9.148-39.813-27.406-79.789-54.775l6.906-38.435c59.258 42.778 101.487 71.62 126.69 86.526 4.097 2.424 40.684-5.577 109.758-24.002z" fill="#FFA7A8"/><path d="M235.296 281.111c-29.644 9.257-50.423 15.63-62.337 19.117-40.967 11.992-64.48 17.63-71.42 15.298C94.6 313.194 46.137 285.67 19 266c-19.506-14.14-34.797-23.941-41.02-30.28" stroke="#E73536" stroke-width="2" stroke-linecap="round" stroke-linejoin="round"/><path d="M235.553 256.515L111.58 285.114C33.884 233.422-6.78 205.705-10.413 201.963" stroke="#E73536" stroke-width="2" stroke-linecap="round" stroke-linejoin="round"/></g><g><path d="M320 116.114c-16.675 14.294-27.103 27.512-31.283 39.653-4.18 12.14-4.09 28.945.271 50.411-19.866-17.012-41.388-33.007-64.565-47.986-34.766-22.468-69.842-36.19-70.44-39.264-.599-3.075 43.57-3.968 84.127-4.655 27.037-.458 54.334.155 81.89 1.841z" fill="#FFF"/><path d="M223.241 114.536c2.62-.049 5.249-.096 7.874-.143m6.995-.12c2.597-.044 5.196-.078 7.798-.102 16.324-.152 41.021.495 74.092 1.943-16.675 14.294-27.103 27.512-31.283 39.653-4.18 12.14-4.09 28.945.271 50.411-19.866-17.012-41.388-33.007-64.565-47.986-34.766-22.468-69.842-36.19-70.44-39.264-.445-2.283 23.79-3.363 52.9-4.05" stroke="#E73536" stroke-width="2" stroke-linecap="round" stroke-linejoin="round"/></g><path d="M224.822 259L229 282.258" stroke="#E73536" stroke-width="2" stroke-linecap="round" stroke-linejoin="round"/></g></g></svg>