<svg width="575" height="349" xmlns="http://www.w3.org/2000/svg" xmlns:xlink="http://www.w3.org/1999/xlink"><defs><path d="M8.78 212.518c21.64 60.691 117.942 136.106 244.375 136.106 68.295 0 173.348-30.619 233.303-86.971 51.04-47.972 81.75-122.503 85.98-143.024 9.202-44.625-10.234-98.273-73.18-116.082-55.212-15.62-112.428 45.715-209.891 45.715-97.464 0-144.614-29.413-214.885-9.834C4.21 58.008-12.861 151.827 8.779 212.518z" id="a"/></defs><g fill="none" fill-rule="evenodd"><g><mask id="b" fill="#fff"><use xlink:href="#a"/></mask><use fill="#FFEFEF" transform="rotate(-180 287.299 174.312)" xlink:href="#a"/><g mask="url(#b)" stroke="#FFA7A8" stroke-linecap="round" stroke-linejoin="round" stroke-width="2"><path d="M53.173 172.173h474.112l66.579 82.513"/></g></g><path d="M344.536 337.488l-39.185-50.503a10.757 10.757 0 0 0-8.499-4.16H261.08c-4.816 0-7.53 5.526-4.58 9.327l39.185 50.503a10.758 10.758 0 0 0 8.499 4.16h35.772c4.817 0 7.53-5.526 4.58-9.327" fill="#FEFEFE"/><path d="M341.062 332.115l4.009 5.154a6.593 6.593 0 0 1-1.167 9.261 6.618 6.618 0 0 1-4.055 1.387h-35.59a9.922 9.922 0 0 1-7.832-3.828l-20.005-25.72-20.005-25.721a6.593 6.593 0 0 1 1.167-9.26 6.618 6.618 0 0 1 4.054-1.388h35.59a9.922 9.922 0 0 1 7.833 3.828l28.347 36.446" fill="#FFEFEF"/><path d="M341.494 341.865h-35.772a10.757 10.757 0 0 1-8.498-4.16l-39.186-50.503a5.734 5.734 0 0 1-1.145-2.594c-1.842 1.943-2.29 5.1-.393 7.544l39.186 50.503a10.756 10.756 0 0 0 8.497 4.16h35.773c3.79 0 6.277-3.423 5.727-6.733a5.694 5.694 0 0 1-4.189 1.783" fill="#FFA7A8"/><path d="M341.062 332.115l4.009 5.154a6.593 6.593 0 0 1-1.167 9.261 6.618 6.618 0 0 1-4.055 1.387h-35.59a9.922 9.922 0 0 1-7.832-3.828l-20.005-25.72-20.005-25.721a6.593 6.593 0 0 1 1.167-9.26 6.618 6.618 0 0 1 4.054-1.388h35.59a9.922 9.922 0 0 1 7.833 3.828l28.347 36.446" stroke="#E73536" stroke-width="2" stroke-linecap="round" stroke-linejoin="round"/><path fill="#FFF" d="M297.86 332.112l-32.95-42.686h36.135l32.952 42.686z"/><path stroke="#E73536" stroke-width="2" stroke-linecap="round" stroke-linejoin="round" d="M297.86 332.112l-32.95-42.686h36.135l32.952 42.686z"/><path d="M323.642 338.831c-.374.864-2.193 1.019-4.064.345-1.87-.675-3.085-1.922-2.71-2.786.374-.865 2.194-1.018 4.065-.344 1.87.674 3.084 1.921 2.71 2.785" fill="#FEFEFE"/><path d="M323.642 338.831c-.374.864-2.193 1.019-4.064.345-1.87-.675-3.085-1.922-2.71-2.786.374-.865 2.194-1.018 4.065-.344 1.87.674 3.084 1.921 2.71 2.785z" stroke="#E73536" stroke-width="2" stroke-linecap="round" stroke-linejoin="round"/><g><path d="M509.612 285a2.186 2.186 0 0 1 2.178-2h1.515c1.73 0 3.373.731 4.53 2h5.893c5.5 0 10.677 2.594 13.97 7a4.379 4.379 0 0 1-3.508 7h-6.094a2.186 2.186 0 0 1-2.178 2h-.118a9 9 0 0 1-5.657-2H406.268c-5.5 0-10.678-2.594-13.97-7a4.379 4.379 0 0 1 3.508-7h113.806z" stroke="#E73536" stroke-width="2" fill="#FFEFEF" stroke-linecap="round" stroke-linejoin="round"/><path d="M528.096 295h6.094a4.379 4.379 0 0 0 3.896-2.379A4.38 4.38 0 0 1 534.19 299h-6.094a2.186 2.186 0 0 1-2.178 2h-.118a9 9 0 0 1-5.657-2H406.268c-5.5 0-10.678-2.594-13.97-7a4.379 4.379 0 0 1-.389-4.621c.11.214.24.422.39.621 3.291 4.406 8.469 7 13.969 7h113.875a9 9 0 0 0 5.657 2h.118a2.186 2.186 0 0 0 2.178-2z" fill="#FFA7A8"/><path d="M509.612 285a2.186 2.186 0 0 1 2.178-2h1.515c1.73 0 3.373.731 4.53 2h5.893c5.5 0 10.677 2.594 13.97 7a4.379 4.379 0 0 1-3.508 7h-6.094a2.186 2.186 0 0 1-2.178 2h-.118a9 9 0 0 1-5.657-2H406.268c-5.5 0-10.678-2.594-13.97-7a4.379 4.379 0 0 1 3.508-7h113.806z" stroke="#E73536" stroke-width="2" stroke-linecap="round" stroke-linejoin="round"/><path d="M405.96 291.858c-.216.501-1.27.591-2.352.2-1.083-.391-1.785-1.114-1.569-1.615.217-.501 1.27-.59 2.353-.2 1.083.391 1.786 1.114 1.569 1.615zM414.96 291.858c-.216.501-1.27.591-2.352.2-1.083-.391-1.785-1.114-1.569-1.615.217-.501 1.27-.59 2.353-.2 1.083.391 1.786 1.114 1.569 1.615zM423.96 291.858c-.216.501-1.27.591-2.352.2-1.083-.391-1.785-1.114-1.569-1.615.217-.501 1.27-.59 2.353-.2 1.083.391 1.786 1.114 1.569 1.615zM432.96 291.858c-.216.501-1.27.591-2.352.2-1.083-.391-1.785-1.114-1.569-1.615.217-.501 1.27-.59 2.353-.2 1.083.391 1.786 1.114 1.569 1.615z" fill="#E73536"/><path d="M466.895 299.704l-11.356-14.47a2 2 0 0 1 1.573-3.234h26.255a6 6 0 0 1 4.72 2.296l11.356 14.47A2 2 0 0 1 497.87 302h-26.255a6 6 0 0 1-4.72-2.296z" fill="#FFF"/><path d="M458.14 282l10.755 13.704a6 6 0 0 0 4.72 2.296h25.228l.6.765A2 2 0 0 1 497.87 302h-26.255a6 6 0 0 1-4.72-2.296l-11.356-14.47a2 2 0 0 1 1.573-3.234h1.027z" fill="#FFA7A8"/><path d="M466.895 299.704l-11.356-14.47a2 2 0 0 1 1.573-3.234h26.255a6 6 0 0 1 4.72 2.296l11.356 14.47A2 2 0 0 1 497.87 302h-26.255a6 6 0 0 1-4.72-2.296zM514 287l4.67 5.666" stroke="#E73536" stroke-width="2" stroke-linecap="round" stroke-linejoin="round"/></g><g><path d="M159.793 230.985a10.757 10.757 0 0 0-8.499-4.16H18.08c-4.816 0-7.53 5.526-4.58 9.327l39.185 50.503a10.758 10.758 0 0 0 8.499 4.16h133.214c4.816 0 7.53-5.526 4.58-9.327l-39.185-50.503z" fill="#FEFEFE"/><path d="M198.387 281.27a6.593 6.593 0 0 1-1.167 9.26 6.618 6.618 0 0 1-4.055 1.387H61.26a9.922 9.922 0 0 1-7.832-3.828l-20.005-25.72a9179.908 9179.908 0 0 1-18.259-23.582 6.593 6.593 0 0 1 1.167-9.261 6.618 6.618 0 0 1 4.055-1.387H152.29a9.922 9.922 0 0 1 7.832 3.828l38.264 49.302z" fill="#FFEFEF"/><path d="M98.494 285.865H62.722a10.757 10.757 0 0 1-8.498-4.16L16.8 232.108a5.734 5.734 0 0 1-1.146-2.594c-1.842 1.943-4.05 4.193-2.153 6.638 1.528 1.061 2.38 1.704 2.555 1.93 8.311 10.713 12.817 17.882 17.038 23.322l19.593 25.251a10.756 10.756 0 0 0 8.497 4.16H194.13c3.79 0 6.277-3.423 5.727-6.733a5.694 5.694 0 0 1-4.188 1.783" fill="#FFA7A8"/><path d="M15.163 238.787a6.593 6.593 0 0 1 1.167-9.261 6.618 6.618 0 0 1 4.055-1.387H152.29a9.922 9.922 0 0 1 7.832 3.828l38.264 49.302a6.593 6.593 0 0 1-1.167 9.261 6.618 6.618 0 0 1-4.055 1.387H61.26a9.922 9.922 0 0 1-7.832-3.828l-20.005-25.72m-8.927-11.51l-2.654-3.43" stroke="#E73536" stroke-width="2" stroke-linecap="round" stroke-linejoin="round"/><path fill="#FFF" d="M60.78 282.04L23.076 234h117.126l37.703 48.04z"/><path stroke="#E73536" stroke-width="2" stroke-linecap="round" stroke-linejoin="round" d="M60.78 282.04L23.076 234h117.126l37.703 48.04z"/><path stroke="#E73536" stroke-width="2" stroke-linecap="round" stroke-linejoin="round" d="M60.78 282.04L23.076 234h117.126l37.703 48.04zM170.842 257.205c-.374.864-2.193 1.019-4.064.344-1.87-.674-3.084-1.921-2.71-2.785.374-.865 2.194-1.018 4.064-.344 1.871.674 3.085 1.921 2.71 2.785z"/></g><g><path fill="#FFEFEF" d="M209.241 195.756h50.774v28.121h-50.774z"/><path fill="#FFA7A8" d="M209.241 195.756h50.774v10.123h-50.774z"/><path d="M260.015 195.756v28.12m-50.774 0v-28.12" stroke="#E73536" stroke-width="2" stroke-linecap="round" stroke-linejoin="round"/><g><path fill="#FFA7A8" d="M201.343 223.877h66.853v10h-66.853z"/><path stroke="#E73536" stroke-width="2" stroke-linecap="round" stroke-linejoin="round" d="M246.344 233.877h21.852v-10h-66.853v10h33.493"/></g><g transform="translate(106 38)"><rect fill="#FFF" width="254.683" height="157.705" rx="5"/><path d="M0 134h197v23H5a5 5 0 0 1-5-5v-18z" fill="#FFEFEF"/><rect stroke="#E73536" stroke-width="2" stroke-linecap="round" stroke-linejoin="round" x=".158" width="254.683" height="157.705" rx="5"/><path d="M17 134.281h236.947" stroke="#E73536" stroke-width="2" stroke-linecap="round" stroke-linejoin="round"/><g transform="translate(126 6)"><ellipse fill="#FFA7A8" cx="1.5" cy="1.395" rx="1.341" ry="1.338"/><ellipse stroke="#E73536" stroke-width="2" stroke-linecap="round" stroke-linejoin="round" cx="1.5" cy="1.395" rx="1.341" ry="1.338"/></g></g><g transform="translate(295 136)"><rect fill="#FFEFEF" x="7.681" width="184.637" height="113.667" rx="5"/><path d="M8 112.256V1.41C8 .631 8.637 0 9.422 0h181.793c.785 0 1.422.631 1.422 1.41v48.795" stroke="#E73536" stroke-width="2" stroke-linecap="round" stroke-linejoin="round"/><path d="M182.016 95.556v9.085c0 .779-.637 1.41-1.423 1.41H20.423a1.416 1.416 0 0 1-1.423-1.41v-92.23c0-.78.637-1.411 1.422-1.411h160.171c.786 0 1.423.631 1.423 1.41v83.145z" fill="#FFF"/><path d="M182.016 95.556v9.085c0 .779-.637 1.41-1.423 1.41H20.423a1.416 1.416 0 0 1-1.423-1.41v-92.23c0-.78.637-1.411 1.422-1.411h160.171c.786 0 1.423.631 1.423 1.41v83.145z" stroke="#E73536" stroke-width="2" stroke-linecap="round" stroke-linejoin="round"/><path d="M182.016 95.556v9.085c0 .779-.637 1.41-1.423 1.41H20.423a1.416 1.416 0 0 1-1.423-1.41v-92.23c0-.78.637-1.411 1.422-1.411h160.171c.786 0 1.423.631 1.423 1.41v83.145z" stroke="#E73536" stroke-width="2" stroke-linecap="round" stroke-linejoin="round"/><ellipse fill="#FFA7A8" cx="100" cy="5.782" rx="1.28" ry="1.269"/><ellipse stroke="#E73536" stroke-width="2" stroke-linecap="round" stroke-linejoin="round" cx="100.5" cy="6.487" rx="1.5" ry="1.487"/><rect fill="#FFA7A8" y="112.256" width="200" height="10" rx="1"/><path d="M115.79 113.23v1.736c0 .6-.388 1.085-.865 1.085H85.36c-.478 0-.865-.485-.865-1.085v-1.735" stroke="#E73536" stroke-width="2" stroke-linecap="round" stroke-linejoin="round"/></g></g></g></svg>