<?xml version="1.0" encoding="UTF-8"?>
<svg width="94px" height="75px" viewBox="0 0 94 75" version="1.1" xmlns="http://www.w3.org/2000/svg" xmlns:xlink="http://www.w3.org/1999/xlink">
    <!-- Generator: Sketch 58 (84663) - https://sketch.com -->
    <title>icon-design</title>
    <desc>Created with Sketch.</desc>
    <g id="Page-1" stroke="none" stroke-width="1" fill="none" fill-rule="evenodd">
        <g id="Final-Combo-Copy-11" transform="translate(-148.000000, -2203.000000)">
            <g id="3_Package-Process" transform="translate(-5.000000, 1420.000000)">
                <g id="Package_2" transform="translate(155.000000, 678.000000)">
                    <g id="icon-design" transform="translate(0.000000, 107.000000)">
                        <g id="Group-3">
                            <polyline id="Rectangle" stroke="#E73536" stroke-width="2.32704" fill="#FFFFFF" points="62.0276575 56.3909774 4.63690476 56.3909774 4.63690476 4.5112782 76.5089286 4.5112782 76.5089286 42.0289004"></polyline>
                            <g id="Group" fill="#FFFFFF" fill-rule="nonzero" stroke="#E73536" stroke-width="2.33">
                                <polygon id="Stroke-1" points="0 11.2781955 11.5922619 11.2781955 11.5922619 0 0 0"></polygon>
                            </g>
                            <g id="Group-Copy-2" transform="translate(69.553571, 0.000000)" fill="#FFFFFF" fill-rule="nonzero" stroke="#E73536" stroke-width="2.33">
                                <polygon id="Stroke-1" points="0 11.2781955 11.5922619 11.2781955 11.5922619 0 0 0"></polygon>
                            </g>
                            <g id="Group-Copy" transform="translate(0.000000, 51.879699)" fill="#FFFFFF" fill-rule="nonzero" stroke="#E73536" stroke-width="2.33">
                                <polygon id="Stroke-1" points="0 11.2781955 11.5922619 11.2781955 11.5922619 0 0 0"></polygon>
                            </g>
                            <g id="Group-2" transform="translate(13.910714, 20.300752)" stroke="#FFA7A8">
                                <polyline id="Path-2" stroke-width="2.33" points="0 22.784001 9.02586579 14.1004073 20.339203 22.784001 42.9121102 0 53.3244048 8.86773079"></polyline>
                                <ellipse id="Oval-5" stroke-width="2" cx="15.0699405" cy="3.38345865" rx="3.47767857" ry="3.38345865"></ellipse>
                            </g>
                        </g>
                        <g id="Group-4-Copy" transform="translate(66.000000, 47.000000)" stroke="#FFA7A8">
                            <polyline id="Stroke-1" stroke-width="2.33" points="16.2571384 11.2162029 20.2532468 7.21900828 0.701889036 0.701889036 7.21900828 20.2532468 10.9446254 16.5276297"></polyline>
                            <polyline id="Stroke-3" stroke-width="2" points="11.6883117 16.1159922 19.5499721 23.9776527 23.9776527 19.5499721 16.1169171 11.6883117"></polyline>
                        </g>
                    </g>
                </g>
            </g>
        </g>
    </g>
</svg>