<?xml version="1.0" encoding="UTF-8"?>
<svg width="525px" height="512px" viewBox="0 0 525 512" version="1.1" xmlns="http://www.w3.org/2000/svg" xmlns:xlink="http://www.w3.org/1999/xlink">
    <title>c-github</title>
    <g id="Home" stroke="none" stroke-width="1" fill="none" fill-rule="evenodd">
        <g id="c-github" fill="#FFFFFF" fill-rule="nonzero">
            <path d="M489.833481,130.696775 C466.404714,90.4901153 434.625088,58.6584472 394.486238,35.1945896 C354.341414,11.7295353 310.515234,0 262.976631,0 C215.444003,0 171.603485,11.7331256 131.467025,35.1945896 C91.3245902,58.6572505 59.5461587,90.4901153 36.1173919,130.696775 C12.6922096,170.902237 0.979020979,214.806913 0.979020979,262.409606 C0.979020979,319.59124 17.6353353,371.01043 50.9563278,416.680341 C84.2737358,462.353842 127.314895,493.958124 180.076219,511.496777 C186.217787,512.638495 190.76422,511.835463 193.720298,509.108026 C196.67757,506.376998 198.154414,502.956632 198.154414,498.861288 C198.154414,498.177932 198.095866,492.030129 197.982355,480.410696 C197.865259,468.791264 197.810295,458.654628 197.810295,450.005577 L189.963666,451.365107 C184.960797,452.283029 178.64956,452.671979 171.029953,452.561876 C163.413931,452.455364 155.507558,451.655922 147.321589,450.169534 C139.132036,448.696312 131.514819,445.279535 124.463964,439.926387 C117.416695,434.573238 112.413826,427.566154 109.456554,418.915906 L106.045235,411.053132 C103.771421,405.818463 100.191628,400.003362 95.3010761,393.629369 C90.4105242,387.249392 85.4650088,382.924268 80.4621402,380.646816 L78.0736199,378.934239 C76.4820697,377.796112 75.0052258,376.423417 73.6395036,374.830518 C72.2749762,373.237618 71.253373,371.643521 70.5711094,370.047031 C69.8876509,368.449344 70.4540133,367.138882 72.2761711,366.110857 C74.0983289,365.082832 77.3913563,364.583779 82.1695916,364.583779 L88.9898385,365.604624 C93.5386612,366.517759 99.1652455,369.245196 105.87676,373.80369 C112.584691,378.358593 118.098958,384.280208 122.420758,391.566139 C127.654234,400.908119 133.959497,408.026503 141.354471,412.924879 C148.74347,417.823256 156.193407,420.268255 163.697112,420.268255 C171.200818,420.268255 177.681725,419.698593 183.142224,418.565253 C188.596749,417.425928 193.714324,415.713351 198.492559,413.437096 C200.53935,398.168714 206.112166,386.439179 215.206226,378.240113 C202.244412,376.875796 190.590966,374.820943 180.239915,372.088719 C169.894838,369.352905 159.204448,364.912891 148.175913,358.75671 C137.141403,352.608906 127.987599,344.974716 120.712112,335.867302 C113.435429,326.755101 107.463531,314.792195 102.804782,299.989357 C98.1436423,285.180534 95.8124752,268.09785 95.8124752,248.736518 C95.8124752,221.168938 104.797804,197.709868 122.764877,178.346142 C114.3483,157.620492 115.142881,134.386414 125.151007,108.646301 C131.746621,106.593842 141.527725,108.134084 154.48954,113.257453 C167.453744,118.383216 176.945693,122.774162 182.974944,126.414734 C189.004195,130.054109 193.835004,133.138184 197.47454,135.639431 C218.629493,129.719014 240.460736,126.758207 262.974242,126.758207 C285.487748,126.758207 307.323769,129.719014 328.479917,135.639431 L341.442927,127.442759 C350.307575,121.973524 360.775722,116.961454 372.822276,112.405354 C384.875999,107.851647 394.09313,106.597432 400.46411,108.649892 C410.694481,134.391201 411.606157,157.624082 403.187191,178.349732 C421.153069,197.713458 430.141982,221.178512 430.141982,248.740108 C430.141982,268.101441 427.802451,285.237979 423.148481,300.160495 C418.488537,315.085404 412.46526,327.036342 405.07626,336.03844 C397.678897,345.039341 388.466546,352.613694 377.43801,358.7603 C366.407086,364.911694 355.71311,369.351708 345.368034,372.087523 C335.018178,374.823337 323.364732,376.879387 310.402917,378.246097 C322.224838,388.492835 328.136993,404.667171 328.136993,426.761925 L328.136993,498.851713 C328.136993,502.947058 329.558873,506.366227 332.405024,509.098452 C335.24759,511.825889 339.73667,512.628921 345.878238,511.486006 C398.646732,493.949747 441.687891,462.344268 475.004104,416.670767 C508.316732,371.000856 524.979021,319.581666 524.979021,262.400032 C524.967072,214.803323 513.24791,170.902237 489.833481,130.696775 Z" id="Path"></path>
        </g>
    </g>
</svg>