<?xml version="1.0" encoding="UTF-8"?>
<svg width="512px" height="512px" viewBox="0 0 512 512" version="1.1" xmlns="http://www.w3.org/2000/svg" xmlns:xlink="http://www.w3.org/1999/xlink">
    <title>c-youtube</title>
    <g id="Home" stroke="none" stroke-width="1" fill="none" fill-rule="evenodd">
        <g id="c-youtube" fill="#FFFFFF" fill-rule="nonzero">
            <polygon id="Path" points="224.113281 303.960938 307.386719 256 224.113281 208.039062"></polygon>
            <path d="M256,0 C114.636719,0 0,114.636719 0,256 C0,397.363281 114.636719,512 256,512 C397.363281,512 512,397.363281 512,256 C512,114.636719 397.363281,0 256,0 Z M415.962313,256.261719 C415.962313,256.261719 415.962313,308.179688 409.375,333.214844 C405.683594,346.917969 394.878906,357.722656 381.175781,361.410156 C356.140625,368 256,368 256,368 C256,368 156.121094,368 130.824219,361.148438 C117.121094,357.460938 106.316406,346.652344 102.625,332.949219 C96.035156,308.179688 96.035156,256 96.035156,256 C96.035156,256 96.035156,204.085938 102.625,179.050781 C106.3125,165.347656 117.382812,154.277344 130.824219,150.589844 C155.859375,144 256,144 256,144 C256,144 356.140625,144 381.175781,150.851562 C394.878906,154.539062 405.683594,165.347656 409.375,179.050781 C416.226562,204.085938 415.962313,256.261719 415.962313,256.261719 L415.962313,256.261719 Z" id="Shape"></path>
        </g>
    </g>
</svg>