<?xml version="1.0" encoding="UTF-8"?>
<svg width="17px" height="17px" viewBox="0 0 17 17" version="1.1" xmlns="http://www.w3.org/2000/svg" xmlns:xlink="http://www.w3.org/1999/xlink">
    <title>icon-link-red</title>
    <g id="Home" stroke="none" stroke-width="1" fill="none" fill-rule="evenodd">
        <g id="cta-react" transform="translate(-350.000000, -830.000000)">
            <g id="Group-5" transform="translate(150.000000, 140.000000)">
                <g id="Group" transform="translate(0.000000, 539.000000)">
                    <g id="Group-7">
                        <g id="icon-link-red" transform="translate(200.000000, 151.000000)">
                            <polygon id="Stroke-1" stroke-opacity="0.0117647061" stroke="#000000" stroke-width="1.33333336e-11" points="0 0 15.9999993 0 15.9999993 15.9999993 0 15.9999993"></polygon>
                            <g id="Group-6" transform="translate(1.333333, 1.333333)" stroke="#E73536" stroke-linecap="round" stroke-linejoin="round" stroke-width="1.5">
                                <path d="M5.33333293,7.33333281 C5.94143316,8.14629183 6.75179945,8.58903254 7.76443299,8.661555 C8.77706659,8.73407813 9.64225447,8.41133695 10.3599986,7.69333279 L12.3599998,5.69333291 C12.9916205,5.03936855 13.3034811,4.25781153 13.2955811,3.34866212 C13.2876805,2.43951264 12.9622858,1.66349329 12.3193958,1.02060353 C11.6765066,0.377713764 10.9004879,0.0523187835 9.99133865,0.0444187173 C9.08218891,0.0365186511 8.30063189,0.348379032 7.64666693,0.979999861 L6.5000002,2.11999966" id="Stroke-3"></path>
                                <path d="M7.99999944,5.99999956 C7.39190048,5.18704121 6.58153359,4.7443005 5.56889999,4.67177737 C4.55626645,4.59925424 3.69107723,4.92199542 2.97333307,5.63999958 L0.973333195,7.63999946 C0.341704899,8.29396316 0.0298394515,9.07552211 0.0377366511,9.98467599 C0.0456338506,10.8938299 0.371028831,11.6698539 1.01392193,12.3127458 C1.65681442,12.9556378 2.43283757,13.2810331 3.34199112,13.2889305 C4.25114473,13.2968285 5.03270302,12.9849631 5.68666671,12.3533345 L6.82666664,11.2133326" id="Stroke-5"></path>
                            </g>
                        </g>
                    </g>
                </g>
            </g>
        </g>
    </g>
</svg>