<?xml version="1.0" encoding="UTF-8"?>
<svg width="38px" height="36px" viewBox="0 0 38 36" version="1.1" xmlns="http://www.w3.org/2000/svg" xmlns:xlink="http://www.w3.org/1999/xlink">
    <!-- Generator: Sketch 50.2 (55047) - http://www.bohemiancoding.com/sketch -->
    <title>icons/ruby</title>
    <desc>Created with Sketch.</desc>
    <defs></defs>
    <g id="Page-1" stroke="none" stroke-width="1" fill="none" fill-rule="evenodd">
        <g id="Home-RNTraining" transform="translate(-1230.000000, -1399.000000)">
            <g id="Intro" transform="translate(-1.000000, 902.000000)">
                <g id="Group-11-Copy-3" transform="translate(1190.000000, 487.000000)">
                    <g id="icons-/-tech-/-rubyonrails">
                        <g id="rails_logo" transform="translate(41.000000, 10.000000)">
                            <g id="Group">
                                <path d="M36.1782837,9.96905518 C33.8191989,8.10845274 30.2250902,6.62476111 27.3912653,7.6159668 C22.3880352,9.3661434 20.0862183,13.3729859 19,18.0515391 C18.2241762,21.3928207 18.2485357,24.7303079 19,28.0407481 C19.5269236,30.3619285 20.6553651,32.6220098 21.6233586,34.8255647 C21.6619008,34.9132243 21.6883173,35.0050675 21.732381,35.1286277 L5.65795898,35.1286277 C5.41305422,32.8906567 6.0638055,28.0032644 6.80444336,25.1882324 C7.54508122,22.3732005 9.08025699,16.4477879 12.6341495,11.807373 C14.7343737,9.06521242 17.5599705,5.89350811 21.1017373,4.76823474 C24.950759,3.54537801 28.7086219,3.71369229 32.3810641,5.33729266 C34.185293,6.13498558 36.3396495,7.47712167 37.2685594,8.42542182 C37.0081831,8.7788818 36.1782837,9.96905518 36.1782837,9.96905518 Z" id="Fill-1" stroke="#E73536" stroke-width="1.5" stroke-linecap="round" stroke-linejoin="round"></path>
                                <polygon id="Fill-10" fill="#FFA7A8" points="0.806410846 30.8553539 1.15797335 27.3323759 4.17566636 27.3323759 3.74184283 30.8553539"></polygon>
                                <path d="M5.70138076,20.1479396 C4.77626035,19.7737066 3.91573619,19.4255829 3,19.0551289 C3.28644658,18.031714 3.56013791,17.0536467 3.85496651,16 C4.7350791,16.4328643 5.58703901,16.8517579 6.50168189,17.3015704 C6.23609927,18.2460849 5.97771425,19.1649482 5.70138076,20.1479396" id="Fill-12" fill="#FFA7A8"></path>
                                <path d="M22,30.0017903 C22.7821114,30.0017903 23.5140286,29.9937653 24.2456812,30.0116961 C24.3398063,30.0140785 24.4782151,30.1182774 24.5183528,30.2312535 C24.8471289,31.1556268 25.15738,32.0934168 25.5016819,33.1109547 C24.5279682,33.031583 23.6252673,32.9636217 22.7235368,32.8748458 C22.6485544,32.8674478 22.5373156,32.7387979 22.5158795,32.6357275 C22.3380387,31.7819487 22.1773997,30.9208972 22,30.0017903" id="Fill-13" fill="#FFA7A8"></path>
                                <path d="M9.99982829,11.1479396 C9.31912191,10.5315734 8.67938479,9.95230053 8,9.33723792 C8.52475889,8.54749279 9.0200023,7.80230711 9.55304314,7 C10.1923397,7.56813298 10.8221209,8.12785181 11.5016819,8.73177455 C10.9983327,9.54154774 10.5151598,10.3187309 9.99982829,11.1479396" id="Fill-14" fill="#FFA7A8"></path>
                                <path d="M20.2459836,24.8374544 C20.1334196,24.7907569 19.9963446,24.6348935 20.0000745,24.5337362 C20.0303136,23.7247247 20.0917243,22.916699 20.1506039,22 C21.2217606,22.5263626 22.1923424,22.9954316 23.1505354,23.4849537 C23.2591031,23.5403992 23.3518185,23.7075982 23.3616762,23.8292087 C23.4206891,24.5605965 23.453326,25.293586 23.5016819,26.1479396 C22.3388754,25.6831831 21.2879669,25.2694364 20.2459836,24.8374544 Z" id="Fill-15" fill="#FFA7A8"></path>
                                <path d="M15,2.53383956 C15.6920289,2.00971632 16.3349329,1.52270668 17.0252109,1 C17.5038139,1.78703478 17.9821252,2.57350293 18.5016819,3.42796546 C17.8273574,4.00081798 17.1782277,4.55228062 16.4770547,5.14793959 C15.9981598,4.3002765 15.5202377,3.45459658 15,2.53383956" id="Fill-16" fill="#FFA7A8"></path>
                                <path d="M20.3854919,18.9260302 C20.3854919,18.9260302 20.7097047,17.553134 21.1036703,16.8520604 C21.8930852,17.3817815 22.6525582,17.8814804 23.3934187,18.4017083 C23.481626,18.4636515 23.5203347,18.6479385 23.4930902,18.7585344 C23.3143828,19.4813237 23.1111283,20.1993664 22.8939819,21 C21.8863416,20.2395939 20.3854919,18.9260302 20.3854919,18.9260302 Z" id="Fill-17" fill="#FFA7A8"></path>
                                <path d="M23.4452002,2.0369849 C23.312952,1.72887024 23.1684126,0.906709582 23,0.514653808 C24.0331669,0.539328647 25.0164601,0.559628514 25.9980987,0.591828304 C26.0873278,0.594744952 26.2217033,0.669061133 26.2406128,0.718994141 C26.3404785,0.981900758 26.4098527,1.73301188 26.5016819,2.0369849 L23.4452002,2.0369849 Z" id="Fill-18" fill="#FFA7A8"></path>
                                <path d="M25.1894491,15.4057295 C24.4297735,14.6340732 23.7386266,13.93203 23,13.1819363 C23.5244297,12.7413807 24.0290064,12.3175717 24.5833351,11.8520604 C25.0624378,12.5157943 25.5184584,13.1311492 25.9491246,13.7610616 C26.0149026,13.8573819 26.0157397,14.0442212 25.9583335,14.1485316 C25.736602,14.5520915 25.4791112,14.9392331 25.1894491,15.4057295" id="Fill-19" fill="#FFA7A8"></path>
                                <path d="M27,9.4007575 C27.6180046,9.25940143 28.187524,9.12904802 28.7513575,9 C29.2183242,9.86184308 29.091994,10.1048338 27.8149431,10.7768346 C27.5424339,10.3165882 27.2862587,9.88403487 27,9.4007575 Z" id="Fill-20" fill="#FFA7A8"></path>
                                <path d="M32.0875754,2 C33.1245151,2.68676614 34.0439453,3.29556052 35,3.92868106 C34.8216854,4.18064895 34.6730663,4.39087826 34.4790555,4.66525183 C33.7052748,4.28858032 32.9388473,3.94340479 32.2125794,3.53907826 C32.0622635,3.455217 32.0167303,3.15357251 32.0031552,2.94795237 C31.9853379,2.67741977 32.0469915,2.40253407 32.0875754,2" id="Fill-21" fill="#FFA7A8"></path>
                                <path d="M32,9.87065772 L32,9 C32.3992198,9.11632755 33.7672119,9.76869471 33.7672119,9.76869471 L33.7672119,10.4447632 C33.7672119,10.4447632 32.3926533,9.92665362 32,9.87065772 Z" id="Fill-22" fill="#FFA7A8"></path>
                            </g>
                        </g>
                    </g>
                </g>
            </g>
        </g>
    </g>
</svg>