<svg width="585" height="361" xmlns="http://www.w3.org/2000/svg" xmlns:xlink="http://www.w3.org/1999/xlink"><defs><path d="M248.958 358c129.669 6.418 110.7 0 206.119 0s129.461-101.93 129.461-124.709c0-7.053-.527-14.294-1.596-21.62-7.598-52.066-42.562-108.48-110.149-133.074-62.487-22.738-109.603 0-198.553 0S170.803 0 106.896 0C42.99 0 8.522 40.078 1.752 114.436c-2.84 31.196-2.22 80.672 21.264 116.119C74.156 307.748 119.289 351.582 248.958 358z" id="a"/><path id="c" d="M0 0h133v64H0z"/></defs><g fill="none" fill-rule="evenodd"><g><mask id="b" fill="#fff"><use xlink:href="#a"/></mask><use fill="#FFEFEF" xlink:href="#a"/><g mask="url(#b)" stroke="#E73536" stroke-linecap="round" stroke-linejoin="round" stroke-width="2"><path d="M53.985 104.991h131.03v215.018H53.985z"/></g><g mask="url(#b)" stroke="#E73536" stroke-linecap="round" stroke-linejoin="round" stroke-width="2"><path d="M53.985-144.009h131.03V71.009H53.985z"/></g><g mask="url(#b)" stroke="#E73536" stroke-linecap="round" stroke-linejoin="round" stroke-width="2"><path d="M399.985 201.991h131.03v215.018h-131.03z"/></g><g mask="url(#b)" stroke="#E73536" stroke-linecap="round" stroke-linejoin="round" stroke-width="2"><path d="M399.985-47.009h131.03v215.018h-131.03z"/></g></g><g transform="translate(218 41)"><rect fill="#FFCACA" width="149" height="280" rx="12"/><path fill="#FFF" d="M8 30h133v217H8z"/><use fill="#FFEFEF" xlink:href="#c" transform="translate(8 29)"/><path d="M141 180.486v7.756m0 7.732V247H8V30h133v142.072" stroke="#E73536" stroke-width="2" stroke-linecap="round" stroke-linejoin="round"/><rect fill="#FFCACA" x="24" y="115" width="20" height="20" rx="10"/><rect fill="#FFCACA" x="24" y="159" width="20" height="20" rx="10"/><rect fill="#FFCACA" x="24" y="203" width="20" height="20" rx="10"/><path d="M58.5 16.5h17M58 119h65.928M58 163h65.928M58 207h65.928M58.538 129h40.417M58.538 173h40.417M58.538 217h40.417" stroke="#E73536" stroke-width="2" stroke-linecap="round" stroke-linejoin="round"/><circle stroke="#E73536" stroke-width="2" stroke-linecap="round" stroke-linejoin="round" cx="88" cy="16" r="4"/><g transform="translate(68 256)"><circle fill="#FFA7A8" cx="8" cy="8" r="8"/><path d="M11.71.91A8 8 0 1 0 16 8" stroke="#E73536" stroke-width="2" stroke-linecap="round" stroke-linejoin="round"/></g><g transform="translate(50 48)"><path fill="#FFF" d="M0 33l10.384-15.165 11.02 10.154L34.065 8.002 47.764 33"/><circle fill="#FFF" cx="16.5" cy="4.5" r="4.5"/><circle stroke="#E73536" stroke-width="2" stroke-linecap="round" stroke-linejoin="round" cx="16.5" cy="4.5" r="4.5"/><path stroke="#E73536" stroke-width="2" stroke-linecap="round" stroke-linejoin="round" d="M0 33l10.295-15.165 11.371 10.1L36.701 5 52 33"/></g></g><path d="M227.5 134.5h82.098M316.5 134.5h41.503" stroke="#E73536" stroke-width="2" stroke-linecap="round" stroke-linejoin="round"/></g></svg>