<?xml version="1.0" encoding="UTF-8"?>
<svg width="93px" height="69px" viewBox="0 0 93 69" version="1.1" xmlns="http://www.w3.org/2000/svg" xmlns:xlink="http://www.w3.org/1999/xlink">
    <!-- Generator: Sketch 58 (84663) - https://sketch.com -->
    <title>icon-help</title>
    <desc>Created with Sketch.</desc>
    <g id="Page-1" stroke="none" stroke-width="1" fill="none" fill-rule="evenodd" stroke-linecap="round" stroke-linejoin="round">
        <g id="Final-Combo-Copy-11" transform="translate(-969.000000, -933.000000)" stroke="#E73536" stroke-width="1.8">
            <g id="2_Why-Package" transform="translate(196.000000, 825.000000)">
                <g id="Slide-2-Right-" transform="translate(772.000000, 109.000000)">
                    <g id="icon-help" transform="translate(2.000000, 0.000000)">
                        <path d="M30.2829,51.96 C30.2829,54.071 28.5719,55.782 26.4609,55.782 C24.3489,55.782 22.6379,54.071 22.6379,51.96 C22.6379,49.849 24.3489,48.138 26.4609,48.138 C28.5719,48.138 30.2829,49.849 30.2829,51.96 Z" id="Stroke-1"></path>
                        <path d="M35.6306,57.4883 C35.6306,59.5993 33.9196,61.3103 31.8086,61.3103 C29.6966,61.3103 27.9856,59.5993 27.9856,57.4883 C27.9856,55.3773 29.6966,53.6663 31.8086,53.6663 C33.9196,53.6663 35.6306,55.3773 35.6306,57.4883 Z" id="Stroke-3"></path>
                        <path d="M41.0271,63.1085 C41.0271,65.2195 39.3161,66.9305 37.2051,66.9305 C35.0931,66.9305 33.3821,65.2195 33.3821,63.1085 C33.3821,60.9975 35.0931,59.2865 37.2051,59.2865 C39.3161,59.2865 41.0271,60.9975 41.0271,63.1085 Z" id="Stroke-5"></path>
                        <path d="M44.9382,30.2081 L40.9282,34.1181" id="Stroke-7"></path>
                        <path d="M44.9382,30.1973 L44.9382,30.2083 L40.9282,34.1183 L38.8982,36.0973 C37.5392,37.4273 35.1282,37.1773 33.4982,35.5383 C32.5782,34.6183 32.0982,33.4373 32.0982,32.3473 C32.0982,31.4983 32.3982,30.6873 32.9982,30.0973 L37.5482,25.6473 L45.8692,17.5173 C46.7382,17.1973 50.1882,16.0883 53.3482,16.9583 C54.7382,17.3383 56.1382,17.7373 57.5882,17.8073" id="Stroke-9"></path>
                        <path d="M30.4782,53.9073 L29.9992,53.4283" id="Stroke-11"></path>
                        <path d="M44.9284,30.1973 L44.9384,30.1973 C45.4074,30.2883 45.8684,30.4773 46.2684,30.7673 C46.4384,30.8873 46.5984,31.0273 46.7484,31.1773 L48.6884,33.1573 L64.8084,49.6073 C66.1384,50.9583 66.1384,53.1183 64.8084,54.4373 C64.1484,55.0973 63.2884,55.4273 62.4184,55.4273 C61.5184,55.4273 60.6184,55.0783 59.9384,54.3783 L44.9684,39.1183 L44.8984,39.2983 L61.2484,55.9983 C62.5784,57.3473 62.5884,59.5083 61.2584,60.8283 C60.5984,61.4873 59.7384,61.8173 58.8684,61.8173 C57.9684,61.8173 57.0684,61.4683 56.3784,60.7673 L41.0084,45.0883 L40.9784,45.1283 L53.8084,58.2183 C55.1184,59.5573 55.0984,61.6973 53.7784,63.0173 C53.1084,63.6873 52.2384,64.0173 51.3684,64.0173 C50.4884,64.0173 49.5984,63.6773 48.9284,62.9873 L35.1984,48.9773 L45.3884,59.3873 C46.6984,60.7183 46.6884,62.8683 45.3584,64.1873 C44.6984,64.8473 43.8284,65.1773 42.9584,65.1773 C42.1984,65.1773 41.4284,64.9183 40.7984,64.4073" id="Stroke-13"></path>
                        <path d="M35.9587,59.4981 L35.3577,58.8971" id="Stroke-15"></path>
                        <path d="M58.198,35.8878 C53.858,36.1978 50.738,34.7378 48.688,33.1578 C47.579,32.3078 46.778,31.4278 46.268,30.7678 C45.799,30.1678 45.568,29.7578 45.568,29.7578" id="Stroke-17"></path>
                        <path d="M65.3288,13.9376 C65.2988,13.9676 65.2678,14.0076 65.2378,14.0386 C62.4878,17.1976 59.9688,17.9476 57.5888,17.8076 C56.1388,17.7376 54.7378,17.3376 53.3488,16.9586 C50.1878,16.0876 46.7378,17.1976 45.8688,17.5176 C45.7278,17.5676 45.6578,17.5976 45.6578,17.5976 C45.6578,17.5976 42.9188,16.6776 37.7988,18.2376 C32.6688,19.7886 28.8288,12.1976 28.8288,12.1976" id="Stroke-19"></path>
                        <path d="M79.1482,27.5665 C79.1482,27.5665 73.4752,31.7755 73.1102,33.7885 C72.7442,35.8005 70.6392,44.1265 64.6012,48.8835" id="Stroke-21"></path>
                        <path d="M45.8611,29.1563 L40.9281,34.1183" id="Stroke-23"></path>
                        <path d="M11.8122,28.9385 C11.8122,28.9385 16.4782,32.0495 16.8432,35.0685 C17.1862,37.8905 17.6872,40.7925 21.9332,45.7145 C22.5182,46.3925 23.2352,46.9535 24.0392,47.3475 L25.0682,48.3975" id="Stroke-25"></path>
                        <polygon id="Stroke-27" fill="#FFA7A8" points="81.5993 30.0118 61.1663 10.0698 70.3053 0.7068 90.7373 20.6488"></polygon>
                        <polygon id="Stroke-29" fill="#FFA7A8" points="30.1384 10.6378 9.9644 30.8418 0.7064 21.5978 20.8804 1.3938"></polygon>
                        <path d="M11.5261,24.0235 C11.5261,25.0225 10.7151,25.8335 9.7151,25.8335 C8.7161,25.8335 7.9061,25.0225 7.9061,24.0235 C7.9061,23.0235 8.7161,22.2125 9.7151,22.2125 C10.7151,22.2125 11.5261,23.0235 11.5261,24.0235 Z" id="Stroke-31"></path>
                        <path d="M82.9587,24.0235 C82.9587,25.0225 82.1477,25.8335 81.1487,25.8335 C80.1487,25.8335 79.3397,25.0225 79.3397,24.0235 C79.3397,23.0235 80.1487,22.2125 81.1487,22.2125 C82.1477,22.2125 82.9587,23.0235 82.9587,24.0235 Z" id="Stroke-33"></path>
                    </g>
                </g>
            </g>
        </g>
    </g>
</svg>