<?xml version="1.0" encoding="UTF-8"?>
<svg width="512px" height="513px" viewBox="0 0 512 513" version="1.1" xmlns="http://www.w3.org/2000/svg" xmlns:xlink="http://www.w3.org/1999/xlink">
    <title>c-facebook</title>
    <g id="Home" stroke="none" stroke-width="1" fill="none" fill-rule="evenodd">
        <g id="c-facebook" fill-rule="nonzero">
            <path d="M297.277344,508.667969 C295.144531,509.015625 293.003906,509.335938 290.855469,509.628906 C293.003906,509.335938 295.144531,509.015625 297.277344,508.667969 Z" id="Path" fill="#000000"></path>
            <path d="M302.398438,507.792969 C301.378906,507.980469 300.359375,508.152344 299.339844,508.328125 C300.359375,508.152344 301.378906,507.980469 302.398438,507.792969 Z" id="Path" fill="#000000"></path>
            <path d="M285.136719,510.339844 C282.640625,510.621094 280.128906,510.871094 277.609375,511.082031 C280.128906,510.871094 282.640625,510.621094 285.136719,510.339844 Z" id="Path" fill="#000000"></path>
            <path d="M290.054688,509.738281 C288.855469,509.898438 287.648438,510.046875 286.445312,510.1875 C287.648438,510.046875 288.855469,509.898438 290.054688,509.738281 Z" id="Path" fill="#000000"></path>
            <path d="M309.367188,506.410156 C308.46875,506.601562 307.566406,506.792969 306.664062,506.976562 C307.566406,506.792969 308.46875,506.601562 309.367188,506.410156 Z" id="Path" fill="#000000"></path>
            <path d="M326.664062,502.113281 C325.9375,502.320312 325.210938,502.515625 324.484375,502.71875 C325.210938,502.515625 325.9375,502.320312 326.664062,502.113281 Z" id="Path" fill="#000000"></path>
            <path d="M321.433594,503.542969 C320.644531,503.75 319.851562,503.960938 319.058594,504.160156 C319.851562,503.960938 320.644531,503.753906 321.433594,503.542969 Z" id="Path" fill="#000000"></path>
            <path d="M314.589844,505.253906 C313.753906,505.449219 312.910156,505.632812 312.066406,505.820312 C312.910156,505.632812 313.753906,505.449219 314.589844,505.253906 Z" id="Path" fill="#000000"></path>
            <path d="M277.527344,511.089844 C276.179688,511.203125 274.832031,511.304688 273.480469,511.394531 C274.832031,511.304688 276.179688,511.203125 277.527344,511.089844 Z" id="Path" fill="#000000"></path>
            <path d="M512,256 C512,114.636719 397.363281,0 256,0 C114.636719,0 0,114.636719 0,256 C0,397.363281 114.636719,512 256,512 C257.503906,512 259,511.96875 260.5,511.941406 L260.5,312.65625 L205.5,312.65625 L205.5,248.558594 L260.5,248.558594 L260.5,201.390625 C260.5,146.6875 293.894531,116.914062 342.691406,116.914062 C366.058594,116.914062 386.144531,118.65625 392,119.433594 L392,176.605469 L358.351562,176.605469 C331.804688,176.605469 326.664062,189.222656 326.664062,207.734375 L326.664062,248.558594 L390.140625,248.558594 L381.867188,312.65625 L326.664062,312.65625 L326.664062,502.109375 C433.667969,471.433594 512,372.851562 512,256 Z" id="Path" fill="#FFFFFF"></path>
            <path d="M272.914062,511.429688 C270.25,511.601562 267.574219,511.738281 264.890625,511.828125 C267.574219,511.738281 270.25,511.601562 272.914062,511.429688 Z" id="Path" fill="#000000"></path>
            <path d="M264.753906,511.835938 C263.339844,511.882812 261.921875,511.917969 260.503906,511.941406 C261.921875,511.917969 263.339844,511.882812 264.753906,511.835938 Z" id="Path" fill="#000000"></path>
        </g>
    </g>
</svg>