<?xml version="1.0" encoding="UTF-8"?>
<svg width="512px" height="512px" viewBox="0 0 512 512" version="1.1" xmlns="http://www.w3.org/2000/svg" xmlns:xlink="http://www.w3.org/1999/xlink">
    <title>c-insta</title>
    <g id="Home" stroke="none" stroke-width="1" fill="none" fill-rule="evenodd">
        <g id="c-insta" fill="#FFFFFF" fill-rule="nonzero">
            <path d="M305,256 C305,283.0625 283.0625,305 256,305 C228.9375,305 207,283.0625 207,256 C207,228.9375 228.9375,207 256,207 C283.0625,207 305,228.9375 305,256 Z" id="Path"></path>
            <path d="M370.59375,169.304688 C368.238281,162.921875 364.480469,157.144531 359.597656,152.402344 C354.855469,147.519531 349.082031,143.761719 342.695312,141.40625 C337.515625,139.394531 329.734375,137 315.402344,136.347656 C299.898438,135.640625 295.25,135.488281 256,135.488281 C216.746094,135.488281 212.097656,135.636719 196.597656,136.34375 C182.265625,137 174.480469,139.394531 169.304688,141.40625 C162.917969,143.761719 157.140625,147.519531 152.402344,152.402344 C147.519531,157.144531 143.761719,162.917969 141.402344,169.304688 C139.390625,174.484375 136.996094,182.269531 136.34375,196.601562 C135.636719,212.101562 135.484375,216.75 135.484375,256.003906 C135.484375,295.253906 135.636719,299.902344 136.34375,315.40625 C136.996094,329.738281 139.390625,337.519531 141.402344,342.699219 C143.761719,349.085938 147.515625,354.859375 152.398438,359.601562 C157.140625,364.484375 162.914062,368.242188 169.300781,370.597656 C174.480469,372.613281 182.265625,375.007812 196.597656,375.660156 C212.097656,376.367188 216.742188,376.515625 255.996094,376.515625 C295.253906,376.515625 299.902344,376.367188 315.398438,375.660156 C329.730469,375.007812 337.515625,372.613281 342.695312,370.597656 C355.515625,365.652344 365.648438,355.519531 370.59375,342.699219 C372.605469,337.519531 375,329.738281 375.65625,315.40625 C376.363281,299.902344 376.511719,295.253906 376.511719,256.003906 C376.511719,216.75 376.363281,212.101562 375.65625,196.601562 C375.003906,182.269531 372.609375,174.484375 370.59375,169.304688 L370.59375,169.304688 Z M256,331.484375 C214.308594,331.484375 180.511719,297.691406 180.511719,256 C180.511719,214.308594 214.308594,180.515625 256,180.515625 C297.6875,180.515625 331.484375,214.308594 331.484375,256 C331.484375,297.691406 297.6875,331.484375 256,331.484375 Z M334.46875,195.171875 C324.726562,195.171875 316.828125,187.273438 316.828125,177.53125 C316.828125,167.789062 324.726562,159.890625 334.46875,159.890625 C344.210938,159.890625 352.109375,167.789062 352.109375,177.53125 C352.105469,187.273438 344.210938,195.171875 334.46875,195.171875 Z" id="Shape"></path>
            <path d="M256,0 C114.636719,0 0,114.636719 0,256 C0,397.363281 114.636719,512 256,512 C397.363281,512 512,397.363281 512,256 C512,114.636719 397.363281,0 256,0 Z M402.113281,316.605469 C401.402344,332.253906 398.914062,342.9375 395.28125,352.289062 C387.644531,372.035156 372.035156,387.644531 352.289062,395.28125 C342.941406,398.914062 332.253906,401.398438 316.609375,402.113281 C300.933594,402.828125 295.925781,403 256.003906,403 C216.078125,403 211.074219,402.828125 195.394531,402.113281 C179.75,401.398438 169.0625,398.914062 159.714844,395.28125 C149.902344,391.589844 141.019531,385.804688 133.675781,378.324219 C126.199219,370.984375 120.414062,362.097656 116.722656,352.289062 C113.089844,342.941406 110.601562,332.253906 109.890625,316.609375 C109.167969,300.929688 109,295.921875 109,256 C109,216.078125 109.167969,211.070312 109.886719,195.394531 C110.597656,179.746094 113.082031,169.0625 116.714844,159.710938 C120.40625,149.902344 126.195312,141.015625 133.675781,133.675781 C141.015625,126.195312 149.902344,120.410156 159.710938,116.71875 C169.0625,113.085938 179.746094,110.601562 195.394531,109.886719 C211.070312,109.171875 216.078125,109 256,109 C295.921875,109 300.929688,109.171875 316.605469,109.890625 C332.253906,110.601562 342.9375,113.085938 352.289062,116.714844 C362.097656,120.40625 370.984375,126.195312 378.328125,133.675781 C385.804688,141.019531 391.59375,149.902344 395.28125,159.710938 C398.917969,169.0625 401.402344,179.746094 402.117188,195.394531 C402.832031,211.070312 403,216.078125 403,256 C403,295.921875 402.832031,300.929688 402.113281,316.605469 L402.113281,316.605469 Z" id="Shape"></path>
        </g>
    </g>
</svg>