<?xml version="1.0" encoding="UTF-8"?>
<svg width="60px" height="63px" viewBox="0 0 60 63" version="1.1" xmlns="http://www.w3.org/2000/svg" xmlns:xlink="http://www.w3.org/1999/xlink">
    <title>iracademy-mark-white</title>
    <g id="Home" stroke="none" stroke-width="1" fill="none" fill-rule="evenodd">
        <g id="cta-react" transform="translate(-1338.000000, -754.000000)" fill="#E73536" fill-rule="nonzero">
            <g id="Group-5" transform="translate(150.000000, 140.000000)">
                <g id="Group" transform="translate(0.000000, 539.000000)">
                    <g id="Group-7-Copy-2" transform="translate(1128.000000, 0.000000)">
                        <g id="iracademy-mark-white" transform="translate(60.000000, 75.000000)">
                            <path d="M39.6274499,40.2105854 C36.9215623,40.2105854 34.42824,39.2992714 32.4209665,37.7675812 C32.1012544,37.5234558 31.7910472,37.2675178 31.4976898,36.9932049 C31.8303632,36.5605166 32.1379781,36.1072659 32.4209665,35.6373901 C33.2275914,34.2986377 33.8268356,32.8172601 34.169878,31.2374449 C35.2581953,33.1480107 37.2948477,34.4338255 39.6274499,34.4338255 C43.1053991,34.4338255 45.924914,31.576508 45.924914,28.0515643 C45.924914,24.5266207 43.1053991,21.6693032 39.6274499,21.6693032 C37.2784301,21.6693032 35.2301125,22.9730555 34.1474118,24.9050588 C33.8017772,23.3641811 33.2098777,21.9191162 32.4209665,20.6096764 C32.1198323,20.1091755 31.7919114,19.6270497 31.4350435,19.1689864 C31.7469788,18.8732358 32.0787881,18.5997979 32.4209665,18.33861 C34.42824,16.8064823 36.9211303,15.8929808 39.6274499,15.8929808 C46.253267,15.8929808 51.6248623,21.3363652 51.6248623,28.0515643 C51.6248623,34.7667634 46.253267,40.2105854 39.6274499,40.2105854 Z M20.2283138,21.6693469 C23.7092872,21.6693469 26.5309625,24.5266644 26.5309625,28.0516081 C26.5309625,31.5765517 23.7092872,34.4338692 20.2283138,34.4338692 C16.7473404,34.4338692 13.9256651,31.5765517 13.9256651,28.0516081 C13.9256651,24.5266644 16.7473404,21.6693469 20.2283138,21.6693469 Z M20.2282706,40.2105854 C13.5968369,40.2105854 8.22092122,34.7667634 8.22092122,28.0515643 C8.22092122,21.3363652 13.5968369,15.8929808 20.2282706,15.8929808 C25.1669583,15.8929808 29.4053038,18.914361 31.2492649,23.2294309 C31.8813443,24.7081836 32.2356199,26.3374364 32.2356199,28.0515643 C32.2356199,29.7656923 31.8813443,31.3949451 31.2492649,32.8736977 C29.4053038,37.1892052 25.1669583,40.2105854 20.2282706,40.2105854 M0,4.65314875 C0.130045091,7.54634122 0.443708489,14.8871665 0.931917506,28.5258151 C1.32723721,39.5744594 6.30826528,48.7269753 15.7371797,55.7291749 C22.0890814,60.4458705 28.4500559,62.5681868 29.8537648,63 C33.5676096,62.5576867 57.9966379,54.1602971 58.9138659,28.5258151 C59.4020749,14.8871665 59.7157384,7.54634122 59.8462155,4.65314875 C39.9838857,-1.55061207 19.8631939,-1.55148701 0,4.65314875" id="Shape"></path>
                        </g>
                    </g>
                </g>
            </g>
        </g>
    </g>
</svg>