<?xml version="1.0" encoding="UTF-8"?>
<svg width="89px" height="60px" viewBox="0 0 89 60" version="1.1" xmlns="http://www.w3.org/2000/svg" xmlns:xlink="http://www.w3.org/1999/xlink">
    <title>cr_mark_accent-orange@3x</title>
    <g id="Home" stroke="none" stroke-width="1" fill="none" fill-rule="evenodd">
        <g id="cta-react" transform="translate(-196.000000, -755.000000)" fill="#F05F3F" fill-rule="nonzero">
            <g id="Group-5" transform="translate(150.000000, 140.000000)">
                <g id="Group" transform="translate(0.000000, 539.000000)">
                    <g id="Group-7">
                        <g id="cr_mark_accent-orange@3x" transform="translate(46.000000, 76.000000)">
                            <path d="M59.9803023,42.8141069 C57.8382071,36.4842972 52.9964176,31.4847122 46.8113221,29.185639 C52.728247,28.0540894 57.353374,23.224564 58.2519094,17.1555667 C60.5011094,23.6742405 65.615975,28.7727542 72.1101211,30.9254782 C65.9323837,31.7716876 61.012923,36.6216529 59.9803023,42.8141069" id="Fill-11" opacity="0.4"></path>
                            <path d="M28.320625,42.8141069 C27.2871867,36.6216529 22.3677259,31.7716876 16.1908062,30.9254782 C22.6849522,28.7727542 27.7990003,23.6742405 30.0473827,17.1555667 C30.9467357,23.224564 35.5726803,28.0540894 41.4887876,29.185639 C35.303692,31.4847122 30.4619027,36.4842972 28.320625,42.8141069" id="Fill-12" opacity="0.4"></path>
                            <path d="M44.1500548,0.54615253 C52.0267516,0.54615253 58.4121577,7.01495316 58.4121577,14.9938492 C58.4121577,15.7288658 58.3565614,16.450801 58.2519094,17.1555667 C57.353374,23.224564 52.728247,28.0540894 46.8113221,29.185639 C45.9487608,29.3507929 45.0600365,29.4407282 44.1500548,29.4407282 C43.2400732,29.4407282 42.3513489,29.3507929 41.4887876,29.185639 C35.5726803,28.0540894 30.9467356,23.224564 30.0473827,17.1555667 C29.9427308,16.450801 29.887952,15.7288658 29.887952,14.9938492 C29.887952,7.01495316 36.273358,0.54615253 44.1500548,0.54615253 Z M40.5452846,6.36006068 C40.1487518,6.36006068 39.7849225,6.45408395 39.4627907,6.63967769 C38.3950134,7.25369049 37.9903046,8.75479238 38.3222476,10.8650015 C38.355769,11.0775758 38.3974662,11.2942381 38.4448867,11.5149883 L38.4448867,11.5149883 L38.3672153,11.6482562 C36.2014098,12.3170477 34.6741449,13.4175287 34.6642422,14.9284417 C34.6561579,16.1720016 35.736199,17.2773881 37.7065997,18.0410206 C37.9355258,18.1301383 38.1750808,18.2127152 38.4228116,18.2903866 C38.3623097,18.5462934 38.3099837,18.7972946 38.2682864,19.0417551 C37.9077277,21.1478763 38.2928142,22.6538837 39.351598,23.2826132 C39.6810882,23.4780181 40.055546,23.5769469 40.4651605,23.5769469 C41.5010515,23.5769469 42.7527874,22.9024321 44.029051,21.7357261 L44.029051,21.7357261 L44.1811234,21.7365437 C45.3805332,22.874634 46.6298162,23.6268201 47.7548251,23.6268201 C48.1513579,23.6268201 48.5151871,23.5327968 48.837319,23.3480207 C49.9050962,22.7331903 50.3098051,21.232906 49.9770445,19.1218793 C49.9443407,18.909305 49.9026435,18.6926427 49.855223,18.4710748 L49.855223,18.4710748 L49.9328944,18.3378071 C52.0986999,17.6698331 53.6259648,16.5693521 53.6358674,15.0576215 C53.6439518,13.8140616 52.5630931,12.7086751 50.59351,11.9450426 C50.3645839,11.8559249 50.1242114,11.773348 49.8772981,11.6956766 C49.9378,11.4405874 49.990126,11.1895862 50.0318233,10.9451256 C50.392382,8.83900448 50.0072954,7.33381466 48.9476942,6.70426759 C48.6198391,6.50886272 48.2453812,6.40993389 47.8349492,6.40993389 C46.7990582,6.40993389 45.5473223,7.08444862 44.2718763,8.25197228 L44.2718763,8.25197228 L44.1189863,8.25033713 C42.9195765,7.1122468 41.6702934,6.36006068 40.5452846,6.36006068 Z M48.9493293,18.6027073 L49.0842322,18.6910075 C49.493029,20.6458738 49.3082529,22.1437053 48.4416037,22.6432549 C48.2388405,22.7601709 48.0074615,22.8165848 47.7548251,22.8165848 C46.9298732,22.8165848 45.8702718,22.2189239 44.7616149,21.18058 L44.7616149,21.18058 L44.7558917,21.0178789 C45.3028618,20.4406578 45.8473792,19.7808598 46.3747271,19.0466607 L46.3747271,19.0466607 L46.453216,19.0008754 C47.3215004,18.9182985 48.1636219,18.7842131 48.9493293,18.6027073 L48.9493293,18.6027073 Z M39.3033599,18.5372999 C40.0776211,18.7294344 40.9172897,18.8725132 41.797838,18.9681717 L41.797838,18.9681717 L41.876327,19.013957 C42.3742415,19.7236282 42.9089477,20.4014133 43.4632762,21.0072502 L43.4632762,21.0072502 L43.4551003,21.1715865 C42.3439906,22.184585 41.286842,22.7667116 40.4651605,22.7667116 C40.2027129,22.7667116 39.9647932,22.7070273 39.7563068,22.5835706 C38.8970159,22.0725746 38.731862,20.573108 39.1676394,18.6239648 L39.1676394,18.6239648 L39.3033599,18.5372999 Z M43.1403268,19.0728237 C43.4640938,19.0891756 43.7911312,19.1006218 44.1230743,19.1030746 L44.1230743,19.1030746 L44.2874106,19.1038922 C44.5596692,19.1038922 44.8311104,19.0981691 45.1025514,19.088358 C45.1998451,19.0850876 45.2554414,19.1987331 45.1949395,19.2755869 C44.8638141,19.6950125 44.5294183,20.0825518 44.1966577,20.4365698 L44.1966577,20.4365698 L44.0315038,20.4357523 C43.7020136,20.0768287 43.3725233,19.6835661 43.0463035,19.2584174 C42.9866192,19.1807461 43.0438507,19.0679181 43.1403268,19.0728237 Z M44.0126991,11.6932238 L44.1721299,11.6940414 C44.7820547,11.6981294 45.3772628,11.7267451 45.9512136,11.7758008 L45.9512136,11.7758008 L46.0362433,11.8264916 C46.360828,12.3113245 46.6788719,12.8231381 46.9813815,13.3635675 C47.2838912,13.9015442 47.5561498,14.4387032 47.8014279,14.9685037 L47.8014279,14.9685037 L47.8014279,15.0690678 C47.5487914,15.5947805 47.2691744,16.1278515 46.9593064,16.6625577 C46.6494385,17.1980816 46.326489,17.704172 45.9953636,18.184917 L45.9953636,18.184917 L45.9095163,18.2347903 C45.3846212,18.2723996 44.8425566,18.2928394 44.2874106,18.2928394 L44.2874106,18.2928394 L44.1279798,18.2928394 C43.518055,18.2887514 42.9220292,18.2593181 42.3480785,18.2102624 L42.3480785,18.2102624 L42.2622312,18.1595717 C41.9384642,17.6747387 41.6212378,17.1637427 41.3179106,16.6241309 C41.0162185,16.0853366 40.7431423,15.5481776 40.4986818,15.0191946 L40.4986818,15.0191946 L40.4994994,14.9186305 C40.7513182,14.3921003 41.0309352,13.8590293 41.3399856,13.324323 C41.6506712,12.7887992 41.9744383,12.2818912 42.3055637,11.8011461 L42.3055637,11.8011461 L42.391411,11.7512729 C42.9163061,11.7136637 43.4575531,11.6932238 44.0126991,11.6932238 L44.0126991,11.6932238 Z M48.125195,16.2047053 C48.1701626,16.1180404 48.2952545,16.1270339 48.330411,16.2177868 C48.5241806,16.7173365 48.6901522,17.2046223 48.8266903,17.673921 L48.8266903,17.673921 L48.7432958,17.8169999 C48.2715443,17.9265575 47.7719945,18.0189455 47.2462819,18.0925289 C47.1506234,18.1056104 47.0827631,18.0001408 47.1350891,17.9175639 C47.3092366,17.6428525 47.4817488,17.3624179 47.6501731,17.0721721 C47.8169622,16.7843791 47.9739401,16.4949511 48.125195,16.2047053 Z M39.9533468,16.1605552 C39.9901386,16.0698024 40.1152304,16.0632616 40.1585629,16.1499265 C40.3065473,16.4426251 40.4594373,16.7336884 40.6221384,17.0247517 C40.7823868,17.3092743 40.9516286,17.5937969 41.1274113,17.8766842 C41.1789196,17.9600788 41.1094242,18.0663659 41.0137657,18.0516493 C40.4888707,17.9715251 39.9893209,17.8725963 39.5192047,17.7573156 L39.5192047,17.7573156 L39.4374453,17.6117839 C39.5797066,17.1441204 39.7530364,16.6576522 39.9533468,16.1605552 Z M49.7791868,12.5140878 C51.6547465,13.1313709 52.8427101,14.0429878 52.8354194,15.0527159 C52.828811,16.0616264 51.627766,16.9552562 49.7448479,17.5480116 L49.7448479,17.5480116 L49.6025866,17.4719754 C49.3793836,16.6977142 49.0834147,15.8899318 48.7244911,15.0707029 L48.7244911,15.0707029 L48.7253087,14.9783149 C49.094861,14.1639916 49.4022762,13.3594795 49.636108,12.5876712 L49.636108,12.5876712 L49.7791868,12.5140878 Z M38.5544442,12.4388692 L38.6975231,12.5149054 C38.9199086,13.2891665 39.216695,14.096949 39.5756186,14.9161778 L39.5756186,14.9161778 L39.574801,15.0085659 C39.2052487,15.8228891 38.8978335,16.6274012 38.6640017,17.3992096 L38.6640017,17.3992096 L38.5209229,17.472793 C36.6453632,16.8546922 35.4573996,15.9430753 35.4646903,14.9341648 C35.4712987,13.9252543 36.6723437,13.0308069 38.5544442,12.4388692 L38.5544442,12.4388692 Z M44.1500548,13.4837538 C43.3267381,13.4837538 42.6595817,14.1599037 42.6595817,14.9938492 C42.6595817,15.8269771 43.3267381,16.503127 44.1500548,16.503127 C44.9733716,16.503127 45.640528,15.8269771 45.640528,14.9938492 C45.640528,14.1599037 44.9733716,13.4837538 44.1500548,13.4837538 Z M47.2855263,11.9344139 C47.8104214,12.0145381 48.3107888,12.1134669 48.780905,12.2295652 L48.780905,12.2295652 L48.8626644,12.3742793 C48.7204031,12.8427604 48.5470733,13.3292286 48.3467628,13.8271431 C48.3099711,13.9170784 48.1848793,13.9236191 48.1415468,13.8369542 C47.9935624,13.5450733 47.8406724,13.2531924 47.6771536,12.9621291 C47.5169054,12.6776065 47.3476634,12.3930839 47.1726984,12.109379 C47.1211901,12.026802 47.1898678,11.9196972 47.2855263,11.9344139 Z M41.0546455,11.8935342 C41.1503039,11.8804527 41.2181641,11.9867399 41.1658381,12.0684992 C40.9908731,12.3432107 40.8183609,12.6236453 40.6499366,12.9147086 C40.4831475,13.2033192 40.3261696,13.4927473 40.1749147,13.7821754 C40.1291295,13.8688404 40.0048552,13.8606644 39.9696987,13.7699116 C39.7759291,13.2695443 39.6099575,12.7822585 39.4734194,12.3129598 L39.4734194,12.3129598 L39.5568139,12.1690633 C40.0277479,12.0595057 40.5289327,11.9671177 41.0546455,11.8935342 Z M47.8349492,7.22016916 C48.0973968,7.22016916 48.3353165,7.27985349 48.5438029,7.40331012 C49.4030938,7.91430615 49.5682477,9.41377283 49.1332879,11.3620984 L49.1332879,11.3620984 L48.9967498,11.4487633 C48.2224886,11.2574464 47.3820024,11.11355 46.5014541,11.0178915 L46.5014541,11.0178915 L46.4229651,10.9721062 C45.9250506,10.262435 45.391162,9.58546748 44.8368335,8.9796306 L44.8368335,8.9796306 L44.8450094,8.81529428 C45.9561191,7.8031134 47.0140853,7.22016916 47.8349492,7.22016916 Z M40.5452846,7.17029594 C41.3702366,7.17029594 42.4298379,7.7687745 43.5384948,8.80711837 L43.5384948,8.80711837 L43.544218,8.9690019 C42.9980654,9.54622297 42.4535481,10.206021 41.9262002,10.9394025 L41.9262002,10.9394025 L41.8477112,10.9851877 C40.9794268,11.0677647 40.1364878,11.20185 39.3507804,11.3841734 L39.3507804,11.3841734 L39.2158774,11.2950557 C38.806263,9.341007 38.9918568,7.84317547 39.8576884,7.34444338 C40.0612692,7.2267099 40.2926482,7.17029594 40.5452846,7.17029594 Z M44.103452,9.55031093 L44.2686059,9.55194615 C44.5980962,9.9100521 44.9275864,10.3033147 45.2538062,10.7284634 C45.312673,10.8053171 45.2554414,10.918145 45.1589654,10.9140571 C44.8351983,10.8968876 44.5081609,10.8854413 44.177853,10.8829886 L44.177853,10.8829886 L44.0126991,10.8821709 C43.741258,10.8821709 43.4689994,10.8878941 43.1975583,10.8977052 C43.1010823,10.9009756 43.0454859,10.7873301 43.1059878,10.7104763 C43.4362956,10.2910508 43.7706914,9.904329 44.103452,9.55031093 L44.103452,9.55031093 Z" id="Combined-Shape"></path>
                            <path d="M74.0380068,30.7897577 C81.9147038,30.7897577 88.30011,37.2585584 88.30011,45.2366368 C88.30011,53.2155328 81.9147038,59.6843334 74.0380068,59.6843334 C66.16131,59.6843334 59.7767215,53.2155328 59.7767215,45.2366368 C59.7767215,44.4108672 59.8486697,43.6014495 59.9803023,42.8141069 C61.012923,36.6216529 65.9323837,31.7716877 72.1101211,30.9254783 C72.7404857,30.8379957 73.3839319,30.7897577 74.0380068,30.7897577 Z M70.4340541,36.6036659 C70.0367037,36.6036659 69.6728745,36.6976891 69.3507426,36.8832829 C68.283783,37.4972956 67.8782566,38.9983976 68.2110172,41.1086066 C68.2469912,41.339168 68.2927765,41.5754526 68.3451025,41.8150075 L68.3451025,41.8150075 L68.3107636,41.8746918 C66.1155248,42.5418482 64.5629145,43.6480524 64.5521941,45.1712293 C64.5441098,46.4156067 65.6249686,47.5201757 67.5953692,48.2846258 C67.8234778,48.3729258 68.0638503,48.4563204 68.3107636,48.5348094 C68.2502616,48.7898986 68.1979357,49.0408998 68.1562384,49.2853603 C67.7956796,51.3914814 68.1807661,52.8974888 69.2395499,53.5262183 C69.5690402,53.7208056 69.943498,53.8205521 70.3531124,53.8205521 C71.4004498,53.8205521 72.6685375,53.1313206 73.9587002,51.9400868 L73.9587002,51.9400868 L74.0273781,51.9400868 C75.2398695,53.1010697 76.5046867,53.8704253 77.6427772,53.8704253 C78.0393098,53.8704253 78.4039567,53.776402 78.7260885,53.5908083 C79.7930482,52.9759778 80.1977572,51.4756936 79.865814,49.3654845 C79.8298402,49.1349231 79.7832368,48.8986385 79.7309107,48.6574484 L79.7309107,48.6574484 L79.7652503,48.5985817 C81.9613065,47.9314253 83.5139167,46.8252212 83.5238196,45.3012266 C83.531904,44.0576668 82.4518628,42.9522802 80.481462,42.1886478 C80.2525357,42.1003477 80.0129812,42.0169532 79.7652503,41.9384642 C79.825752,41.6841926 79.878078,41.4323737 79.919775,41.1879132 C80.2803337,39.0826097 79.8952477,37.5766022 78.8364638,36.9478727 C78.5077912,36.7524679 78.1333335,36.6527215 77.7229012,36.6527215 C76.6755637,36.6535391 75.4074758,37.3427705 74.1173134,38.5340044 L74.1173134,38.5340044 L74.0486355,38.5331867 C72.8369618,37.3730214 71.5721445,36.6036659 70.4340541,36.6036659 L70.4340541,36.6036659 Z M78.8969655,48.8315959 L78.959103,48.8716579 C79.3858867,50.8575928 79.2060158,52.3824049 78.3303735,52.8860425 C78.1267927,53.003776 77.8954133,53.06019 77.6427772,53.06019 C76.8063788,53.06019 75.72879,52.4453596 74.6037816,51.3800351 L74.6037816,51.3800351 L74.6005112,51.3064517 C75.1679213,50.7128788 75.7320608,50.030188 76.2790305,49.2673732 L76.2790305,49.2673732 L76.3141875,49.2469334 C77.2143578,49.1619037 78.0875482,49.0229128 78.8969655,48.8315959 L78.8969655,48.8315959 Z M69.1316275,48.7653708 C69.9304165,48.9664988 70.8003361,49.116936 71.7135881,49.2142297 L71.7135881,49.2142297 L71.7487447,49.2346695 C72.2638286,49.972139 72.8189747,50.6736343 73.3945607,51.2982758 L73.3945607,51.2982758 L73.3912903,51.3710416 C72.2621935,52.4110207 71.1862402,53.0094992 70.3531124,53.0094992 C70.0906649,53.0094992 69.8527451,52.9506325 69.6450763,52.8271758 C68.7759743,52.3112743 68.6165436,50.7840094 69.0694904,48.8054329 L69.0694904,48.8054329 L69.1316275,48.7653708 Z M72.8941933,49.3090706 C73.2621104,49.3286927 73.6341155,49.344227 74.0110262,49.3466798 L74.0110262,49.3466798 L74.1753626,49.3474974 C74.4925889,49.3474974 74.8098152,49.3393215 75.1262243,49.32624 L75.1262243,49.32624 L75.1679213,49.4112698 C74.7942809,49.8920147 74.415735,50.3318801 74.0388244,50.7275954 L74.0388244,50.7275954 L73.9644234,50.7275954 C73.5924183,50.3253394 73.2195956,49.8789332 72.8516785,49.3924651 L72.8516785,49.3924651 L72.8941933,49.3090706 Z M73.9006511,41.9360114 L74.0600819,41.9368289 C74.681453,41.940917 75.2856548,41.9703503 75.8694165,42.0218587 L75.8694165,42.0218587 L75.9078435,42.0447513 C76.238151,42.5377603 76.5619185,43.0569322 76.8693338,43.6063551 C77.1775665,44.1541428 77.453913,44.7002954 77.7024615,45.2390895 L77.7024615,45.2390895 L77.7024615,45.2848748 C77.4465548,45.819581 77.1628493,46.3616456 76.8480758,46.9061629 C76.5324848,47.4506803 76.2029948,47.9649467 75.8661458,48.45305 L75.8661458,48.45305 L75.8269013,48.475125 C75.293013,48.5151872 74.7411373,48.5364445 74.1753626,48.5364445 L74.1753626,48.5364445 L74.0159318,48.5364445 C73.3953782,48.531539 72.7903589,48.5021057 72.2057795,48.4505972 L72.2057795,48.4505972 L72.1681702,48.4285222 C71.8370448,47.9355133 71.5149129,47.4163413 71.2066802,46.867736 C70.8992649,46.3199483 70.6221007,45.7737958 70.3735523,45.2350016 L70.3735523,45.2350016 L70.3743698,45.1892163 C70.629459,44.6545101 70.9139816,44.1124456 71.2279376,43.5679282 C71.5435287,43.0225933 71.8738365,42.5083269 72.2106851,42.0194059 L72.2106851,42.0194059 L72.2499296,41.9973309 C72.7838182,41.9580864 73.3356939,41.9360114 73.9006511,41.9360114 L73.9006511,41.9360114 Z M78.0761018,46.3273067 L78.1684898,46.3330298 C78.3925103,46.9012574 78.582192,47.4523154 78.7326293,47.9804809 L78.7326293,47.9804809 L78.6950198,48.0458884 C78.1660373,48.1709802 77.5994445,48.273997 77.0009663,48.3541212 L77.0009663,48.3541212 L76.9502753,48.2748146 C77.1497677,47.964129 77.3468078,47.6469027 77.5381253,47.3157773 C77.727807,46.9871047 77.9060423,46.6576145 78.0761018,46.3273067 L78.0761018,46.3273067 Z M69.9860129,46.2725279 C70.1519844,46.6044709 70.3253142,46.9372315 70.510908,47.2683569 C70.6924138,47.5913063 70.8861834,47.9150734 71.0881291,48.2355701 L71.0881291,48.2355701 L71.0366207,48.3148767 C70.4381421,48.2282118 69.8715497,48.1170191 69.3433843,47.9845689 L69.3433843,47.9845689 L69.3065926,47.9191614 C69.4643882,47.3918135 69.6614282,46.841573 69.8936248,46.2774335 L69.8936248,46.2774335 L69.9860129,46.2725279 Z M79.6074548,42.7372531 C81.517353,43.3561715 82.7306617,44.2759643 82.7241734,45.2963211 C82.7167628,46.3158603 81.4903725,47.2176661 79.5731153,47.8096038 L79.5731153,47.8096038 L79.5077078,47.7752649 C79.2812348,46.9748408 78.974637,46.1376249 78.6018143,45.2889628 L78.6018143,45.2889628 L78.6018143,45.2472655 C78.9860835,44.4026913 79.304127,43.5687458 79.5420472,42.7707744 L79.5420472,42.7707744 L79.6074548,42.7372531 Z M68.5037156,42.6628521 L68.5683056,42.697191 C68.7955966,43.4992503 69.1021942,44.3356486 69.4750169,45.1851284 L69.4750169,45.1851284 L69.4741993,45.2268257 C69.0899303,46.0705823 68.7727039,46.9045277 68.5347842,47.7024991 L68.5347842,47.7024991 L68.4693767,47.7360204 C66.5586605,47.117102 65.3461691,46.1973092 65.3526574,45.1769525 C65.3592506,44.1574132 66.585641,43.2556075 68.5037156,42.6628521 L68.5037156,42.6628521 Z M74.0380068,43.727359 C73.2155076,43.727359 72.5475337,44.4035089 72.5475337,45.2366368 C72.5475337,46.0705823 73.2155076,46.7467321 74.0380068,46.7467321 C74.8613236,46.7467321 75.52848,46.0705823 75.52848,45.2366368 C75.52848,44.4035089 74.8613236,43.727359 74.0380068,43.727359 Z M77.0393933,42.1575792 C77.637054,42.2442442 78.2044635,42.3562545 78.7334468,42.4887047 L78.7334468,42.4887047 L78.7702388,42.5541122 C78.6124433,43.08146 78.4154033,43.6325181 78.1832063,44.1966577 L78.1832063,44.1966577 L78.0908183,44.2015633 C77.9240295,43.8696203 77.7515168,43.5368597 77.5659233,43.2057342 C77.3835998,42.8819672 77.1898305,42.5582001 76.9878848,42.2368858 L76.9878848,42.2368858 L77.0393933,42.1575792 Z M71.0766827,42.1191524 L71.1273736,42.1984589 C70.9270631,42.5091445 70.730023,42.8271884 70.5378886,43.1583138 C70.3482068,43.4861688 70.170789,43.8164767 69.9999119,44.1467845 L69.9999119,44.1467845 L69.9075239,44.1410613 C69.6835032,43.5728338 69.4938215,43.0209581 69.3433843,42.491975 L69.3433843,42.491975 L69.3809936,42.4273851 C69.9099767,42.3022933 70.4773866,42.1984589 71.0766827,42.1191524 L71.0766827,42.1191524 Z M77.7229013,37.4645919 C77.9853487,37.4645919 78.2232683,37.5234587 78.4317548,37.6469153 C79.3000395,38.1628169 79.45947,39.6892641 79.0073407,41.6678407 L79.0073407,41.6678407 L78.945204,41.7079028 C78.1455968,41.5059572 77.2756778,41.3563375 76.3624253,41.2582262 L76.3624253,41.2582262 L76.327269,41.2377864 C75.8121848,40.5011346 75.2570385,39.7996393 74.6822705,39.1758153 L74.6822705,39.1758153 L74.6855409,39.1030495 C75.8138198,38.0630705 76.8897735,37.4645919 77.7229013,37.4645919 Z M70.4332366,37.4139011 C71.2696349,37.4139011 72.3472232,38.0287315 73.4730496,39.094056 L73.4730496,39.094056 L73.4755024,39.1676394 C72.90891,39.7612124 72.3439529,40.4430854 71.7978003,41.2050827 L71.7978003,41.2050827 L71.7626438,41.2255225 C70.8624732,41.3105522 69.9892832,41.4503608 69.1790479,41.6416777 L69.1790479,41.6416777 L69.1169108,41.600798 C68.6909446,39.6156807 68.8708152,38.0916862 69.746458,37.5872309 C69.9500387,37.4703151 70.1806001,37.4139011 70.4332366,37.4139011 Z M74.0371892,39.7456781 L74.1115902,39.7464957 C74.4844129,40.1487518 74.856418,40.5943403 75.2243348,41.0808085 L75.2243348,41.0808085 L75.1818203,41.164203 C74.8139031,41.1437632 74.441898,41.1290465 74.065805,41.1265937 L74.065805,41.1265937 L73.9006511,41.1257761 C73.5842423,41.1257761 73.267016,41.1331344 72.9514249,41.1470336 L72.9514249,41.1470336 L72.9097276,41.0620038 C73.2825503,40.5812588 73.6610961,40.142211 74.0371892,39.7456781 L74.0371892,39.7456781 Z" id="Combined-Shape"></path>
                            <path d="M14.2621029,30.7897577 C14.9169954,30.7897577 15.559624,30.8379957 16.1908062,30.9254783 C22.3677259,31.7716877 27.2871867,36.6216529 28.320625,42.8141069 C28.45144,43.6014495 28.5242058,44.4108672 28.5242058,45.2366368 C28.5242058,53.2155328 22.1379821,59.6843334 14.2621029,59.6843334 C6.38540608,59.6843334 0,53.2155328 0,45.2366368 C0,37.2585584 6.38540608,30.7897577 14.2621029,30.7897577 Z M10.6573327,36.6036659 C10.2607998,36.6036659 9.89615302,36.6976891 9.57402112,36.8832829 C8.50706152,37.4972956 8.10235267,38.9983976 8.4342957,41.1086066 C8.4710874,41.339168 8.516055,41.5754526 8.568381,41.8150075 L8.568381,41.8150075 L8.5340421,41.8746918 C6.33880324,42.5418482 4.78619298,43.6480524 4.77627119,45.1712293 C4.76738833,46.4156067 5.84824708,47.5201757 7.8186477,48.2846258 C8.04757387,48.3729258 8.28712882,48.4563204 8.53485967,48.5348094 C8.47435777,48.7898986 8.42203178,49.0408998 8.3795169,49.2853603 C8.01977573,51.3914814 8.40486232,52.8974888 9.46364602,53.5262183 C9.79231867,53.7208056 10.1667765,53.8205521 10.5772085,53.8205521 C11.6245459,53.8205521 12.8926336,53.1313206 14.1827963,51.9400868 L14.1827963,51.9400868 L14.2514742,51.9400868 C15.4639655,53.1010697 16.7287828,53.8704253 17.8660555,53.8704253 C18.263406,53.8704253 18.6272352,53.776402 18.949367,53.5908083 C20.0163267,52.9759778 20.4210355,51.4756936 20.0890925,49.3654845 C20.0531184,49.1349231 20.0073332,48.8986385 19.9550072,48.6574484 L19.9550072,48.6574484 L19.9893461,48.5985817 C22.1845849,47.9314253 23.7371952,46.8252212 23.7479156,45.3012266 C23.7559999,44.0576668 22.6751411,42.9522802 20.7055581,42.1886478 C20.4766319,42.1003477 20.2362594,42.0169532 19.9893461,41.9384642 C20.0490304,41.6841926 20.102174,41.4323737 20.1438713,41.1879132 C20.5044301,39.0826097 20.1193435,37.5766022 19.0597422,36.9478727 C18.7310695,36.7524679 18.3566117,36.6527215 17.9469973,36.6527215 C16.8996598,36.6535391 15.6307546,37.3427705 14.3405919,38.5340044 L14.3405919,38.5340044 L14.2727316,38.5331867 C13.0602403,37.3730214 11.7954229,36.6036659 10.6573327,36.6036659 Z M19.1210617,48.8315959 L19.1823812,48.8716579 C19.6091651,50.8575928 19.4292945,52.3824049 18.5536517,52.8860425 C18.3508886,53.003776 18.1195096,53.06019 17.8660555,53.06019 C17.0296573,53.06019 15.9528865,52.4453596 14.8270601,51.3800351 L14.8270601,51.3800351 L14.8246073,51.3064517 C15.3920173,50.7128788 15.9561568,50.030188 16.5023094,49.2673732 L16.5023094,49.2673732 L16.5382835,49.2469334 C17.4384541,49.1619037 18.3108265,49.0229128 19.1210617,48.8315959 L19.1210617,48.8315959 Z M9.35490608,48.7653708 C10.153695,48.9664988 11.0236146,49.116936 11.9368666,49.2142297 L11.9368666,49.2142297 L11.9728408,49.2346695 C12.4879248,49.972139 13.0422533,50.6736343 13.6186567,51.2982758 L13.6186567,51.2982758 L13.6145688,51.3710416 C12.4862896,52.4110207 11.4095188,53.0094992 10.5772085,53.0094992 C10.314761,53.0094992 10.0768412,52.9506325 9.86835487,52.8271758 C8.99925285,52.3112743 8.83982212,50.7840094 9.29358653,48.8054329 L9.29358653,48.8054329 L9.35490608,48.7653708 Z M13.1174719,49.3090706 C13.485389,49.3286927 13.8573941,49.344227 14.2351223,49.3466798 L14.2351223,49.3466798 L14.3994587,49.3474974 C14.7158674,49.3474974 15.0339113,49.3393215 15.3495024,49.32624 L15.3495024,49.32624 L15.3911997,49.4112698 C15.0175594,49.8920147 14.6398312,50.3318801 14.2629205,50.7275954 L14.2629205,50.7275954 L14.1877019,50.7275954 C13.8156968,50.3253394 13.4428741,49.8789332 13.0757746,49.3924651 L13.0757746,49.3924651 L13.1174719,49.3090706 Z M14.1247472,41.9360114 L14.284178,41.9368289 C14.9047315,41.940917 15.5097508,41.9703503 16.0935126,42.0218587 L16.0935126,42.0218587 L16.1319395,42.0447513 C16.4622473,42.5377603 16.7851968,43.0569322 17.0934295,43.6063551 C17.4008448,44.1541428 17.678009,44.7002954 17.9265575,45.2390895 L17.9265575,45.2390895 L17.9257399,45.2848748 C17.6706506,45.819581 17.3869457,46.3616456 17.0713546,46.9061629 C16.756581,47.4506803 16.4270908,47.9649467 16.0902422,48.45305 L16.0902422,48.45305 L16.0509977,48.475125 C15.5162915,48.5151872 14.9652334,48.5364445 14.3994586,48.5364445 L14.3994586,48.5364445 L14.2400279,48.5364445 C13.6186567,48.531539 13.0136375,48.5021057 12.4298756,48.4505972 L12.4298756,48.4505972 L12.3914487,48.4285222 C12.0611409,47.9355133 11.7381914,47.4163413 11.4299587,46.867736 C11.1225434,46.3199483 10.8461968,45.7737958 10.5976484,45.2350016 L10.5976484,45.2350016 L10.5976484,45.1892163 C10.8535552,44.6545101 11.1372602,44.1124456 11.4520337,43.5679282 C11.7676248,43.0225933 12.097115,42.5083269 12.4347812,42.0194059 L12.4347812,42.0194059 L12.4732081,41.9973309 C13.0079143,41.9580864 13.5589724,41.9360114 14.1247472,41.9360114 L14.1247472,41.9360114 Z M18.3001977,46.3273067 L18.3925858,46.3330298 C18.6166064,46.9012574 18.8054706,47.4523154 18.9567254,47.9804809 L18.9567254,47.9804809 L18.9182985,48.0458884 C18.390133,48.1709802 17.8227231,48.273997 17.2242445,48.3541212 L17.2242445,48.3541212 L17.1735538,48.2748146 C17.3730466,47.964129 17.5709042,47.6469027 17.7622211,47.3157773 C17.9519029,46.9871047 18.1293207,46.6576145 18.3001977,46.3273067 L18.3001977,46.3273067 Z M10.210109,46.2725279 C10.3760805,46.6044709 10.5485927,46.9372315 10.7341864,47.2683569 C10.9165099,47.5913063 11.1102796,47.9150734 11.3114076,48.2355701 L11.3114076,48.2355701 L11.2607168,48.3148767 C10.6622383,48.2282118 10.0956459,48.1170191 9.56748037,47.9845689 L9.56748037,47.9845689 L9.53068868,47.9191614 C9.68848425,47.3918135 9.88470675,46.841573 10.1169033,46.2774335 L10.1169033,46.2774335 L10.210109,46.2725279 Z M19.830733,42.7372531 C21.7414493,43.3561715 22.9547581,44.2759643 22.947466,45.2963211 C22.9408591,46.3158603 21.7144687,47.2176661 19.796394,47.8096038 L19.796394,47.8096038 L19.7318042,47.7752649 C19.5045131,46.9748408 19.1979155,46.1376249 18.8250929,45.2889628 L18.8250929,45.2889628 L18.8259104,45.2472655 C19.2101795,44.4026913 19.5282233,43.5687458 19.7661431,42.7707744 L19.7661431,42.7707744 L19.830733,42.7372531 Z M8.72699415,42.6628521 L8.79158407,42.697191 C9.0188751,43.4992503 9.3254727,44.3356486 9.69829537,45.1851284 L9.69829537,45.1851284 L9.69829537,45.2268257 C9.31402635,46.0705823 8.99598247,46.9045277 8.75806275,47.7024991 L8.75806275,47.7024991 L8.69347282,47.7360204 C6.78275657,47.117102 5.56944766,46.1973092 5.57593599,45.1769525 C5.58334675,44.1574132 6.80973716,43.2556075 8.72699415,42.6628521 L8.72699415,42.6628521 Z M14.2621029,43.727359 C13.4387861,43.727359 12.7716298,44.4035089 12.7716298,45.2366368 C12.7716298,46.0705823 13.4387861,46.7467321 14.2621029,46.7467321 C15.0854197,46.7467321 15.752576,46.0705823 15.752576,45.2366368 C15.752576,44.4035089 15.0854197,43.727359 14.2621029,43.727359 Z M17.2626715,42.1575792 C17.8611499,42.2442442 18.4285599,42.3562545 18.9567254,42.4887047 L18.9567254,42.4887047 L18.9935171,42.5541122 C18.8357215,43.08146 18.6386815,43.6325181 18.4073025,44.1966577 L18.4073025,44.1966577 L18.3140968,44.2015633 C18.1481253,43.8696203 17.9747955,43.5368597 17.7892017,43.2057342 C17.6076959,42.8819672 17.4131086,42.5582001 17.2119806,42.2368858 L17.2119806,42.2368858 L17.2626715,42.1575792 Z M11.2999612,42.1191524 L11.3506521,42.1984589 C11.1511592,42.5091445 10.9533016,42.8271884 10.7619847,43.1583138 C10.5723029,43.4861688 10.3948851,43.8164767 10.2240081,44.1467845 L10.2240081,44.1467845 L10.1308024,44.1410613 C9.90678173,43.5728338 9.71791762,43.0209581 9.56748037,42.491975 L9.56748037,42.491975 L9.60508972,42.4273851 C10.1340727,42.3022933 10.7014828,42.1984589 11.2999612,42.1191524 L11.2999612,42.1191524 Z M17.9469973,37.4645919 C18.2094449,37.4645919 18.4473646,37.5234587 18.6550334,37.6469153 C19.5241354,38.1628169 19.6835661,39.6892641 19.2306193,41.6678407 L19.2306193,41.6678407 L19.1692997,41.7079028 C18.3696932,41.5059572 17.4997736,41.3563375 16.5865215,41.2582262 L16.5865215,41.2582262 L16.5505474,41.2377864 C16.0354634,40.5011346 15.481135,39.7996393 14.905549,39.1758153 L14.905549,39.1758153 L14.9096371,39.1030495 C16.0379162,38.0630705 17.1138694,37.4645919 17.9469973,37.4645919 Z M10.6573327,37.4139011 C11.4937309,37.4139011 12.5713193,38.0287315 13.6963281,39.094056 L13.6963281,39.094056 L13.6995985,39.1676394 C13.1321885,39.7612124 12.5680489,40.4430854 12.0218964,41.2050827 L12.0218964,41.2050827 L11.9859223,41.2255225 C11.0865693,41.3105522 10.2133793,41.4503608 9.40232647,41.6416777 L9.40232647,41.6416777 L9.341007,41.600798 C8.91504067,39.6156807 9.09409372,38.0916862 9.96973642,37.5872309 C10.1733172,37.4703151 10.4038786,37.4139011 10.6573327,37.4139011 Z M14.2612853,39.7456781 L14.3356863,39.7464957 C14.7076914,40.1487518 15.0805141,40.5943403 15.4476137,41.0808085 L15.4476137,41.0808085 L15.4050988,41.164203 C15.0371816,41.1437632 14.6659942,41.1290465 14.2890835,41.1265937 L14.2890835,41.1265937 L14.1247471,41.1257761 C13.8075209,41.1257761 13.4902945,41.1331344 13.1747034,41.1470336 L13.1747034,41.1470336 L13.1330061,41.0620038 C13.5058289,40.5812588 13.8843746,40.142211 14.2612853,39.7456781 L14.2612853,39.7456781 Z" id="Combined-Shape"></path>
                        </g>
                    </g>
                </g>
            </g>
        </g>
    </g>
</svg>